<?xml version="1.0" encoding="UTF-8"?>
<svg xmlns="http://www.w3.org/2000/svg" xmlns:xlink="http://www.w3.org/1999/xlink" width="115px" height="29px" viewBox="0 0 114 29" version="1.1">
<defs>
<clipPath id="clip1">
  <path d="M 1.605469 0 L 111.929688 0 L 111.929688 28.0625 L 1.605469 28.0625 Z M 1.605469 0 "/>
</clipPath>
<clipPath id="clip2">
  <path d="M 1.605469 6 L 16.355469 6 L 16.355469 23.199219 L 1.605469 23.199219 Z M 1.605469 6 "/>
</clipPath>
<clipPath id="clip3">
  <path d="M 97.164062 5 L 111.929688 5 L 111.929688 22.234375 L 97.164062 22.234375 Z M 97.164062 5 "/>
</clipPath>
</defs>
<g id="surface1">
<g clip-path="url(#clip1)" clip-rule="nonzero">
<path style=" stroke:none;fill-rule:nonzero;fill:rgb(100%,100%,100%);fill-opacity:1;" d="M 1.605469 0 L 112.394531 0 L 112.394531 35.230469 L 1.605469 35.230469 Z M 1.605469 0 "/>
<path style=" stroke:none;fill-rule:nonzero;fill:rgb(100%,100%,100%);fill-opacity:1;" d="M 1.605469 0 L 112.394531 0 L 112.394531 28.183594 L 1.605469 28.183594 Z M 1.605469 0 "/>
<path style=" stroke:none;fill-rule:nonzero;fill:rgb(100%,100%,100%);fill-opacity:1;" d="M 1.605469 0 L 112.394531 0 L 112.394531 28.183594 L 1.605469 28.183594 Z M 1.605469 0 "/>
</g>
<g clip-path="url(#clip2)" clip-rule="nonzero">
<path style=" stroke:none;fill-rule:nonzero;fill:rgb(100%,0%,100%);fill-opacity:1;" d="M 10.785156 23.15625 L 7.011719 23.15625 C 6.710938 23.15625 6.492188 23.09375 6.367188 22.960938 C 6.234375 22.832031 6.171875 22.613281 6.171875 22.308594 L 6.171875 19.304688 L 2.59375 14.5 C 2.230469 14.011719 1.992188 13.585938 1.871094 13.234375 C 1.757812 12.871094 1.707031 12.328125 1.707031 11.601562 L 1.707031 7.101562 C 1.707031 6.808594 1.769531 6.597656 1.902344 6.464844 C 2.03125 6.328125 2.246094 6.253906 2.546875 6.253906 L 6.140625 6.253906 C 6.441406 6.253906 6.65625 6.328125 6.785156 6.464844 C 6.914062 6.597656 6.980469 6.808594 6.980469 7.101562 L 6.980469 10.953125 C 6.980469 11.101562 6.984375 11.269531 6.996094 11.449219 C 7.015625 11.625 7.082031 11.78125 7.191406 11.933594 L 8.273438 13.625 C 8.34375 13.769531 8.417969 13.867188 8.5 13.925781 C 8.589844 13.988281 8.699219 14.019531 8.832031 14.019531 L 9.058594 14.019531 C 9.183594 14.019531 9.289062 13.988281 9.371094 13.925781 C 9.460938 13.867188 9.546875 13.769531 9.628906 13.625 L 10.695312 11.933594 C 10.804688 11.78125 10.863281 11.625 10.875 11.449219 C 10.894531 11.269531 10.90625 11.101562 10.90625 10.953125 L 10.90625 7.101562 C 10.90625 6.808594 10.96875 6.597656 11.101562 6.464844 C 11.238281 6.328125 11.453125 6.253906 11.746094 6.253906 L 15.234375 6.253906 C 15.523438 6.253906 15.734375 6.328125 15.867188 6.464844 C 16.003906 6.597656 16.078125 6.808594 16.078125 7.101562 L 16.078125 11.601562 C 16.078125 12.328125 16.007812 12.871094 15.882812 13.234375 C 15.761719 13.585938 15.527344 14.011719 15.191406 14.5 L 11.628906 19.335938 L 11.628906 22.308594 C 11.628906 22.613281 11.558594 22.832031 11.433594 22.960938 C 11.300781 23.09375 11.085938 23.15625 10.785156 23.15625 Z M 10.785156 23.15625 "/>
</g>
<path style=" stroke:none;fill-rule:nonzero;fill:rgb(100%,0%,100%);fill-opacity:1;" d="M 32.976562 18.714844 C 32.976562 19.441406 32.871094 20.097656 32.664062 20.679688 C 32.453125 21.265625 32.078125 21.765625 31.535156 22.191406 C 31 22.605469 30.265625 22.925781 29.324219 23.15625 C 28.382812 23.386719 27.183594 23.503906 25.734375 23.503906 C 24.289062 23.503906 23.089844 23.386719 22.140625 23.15625 C 21.1875 22.925781 20.441406 22.605469 19.902344 22.191406 C 19.367188 21.765625 19 21.265625 18.789062 20.679688 C 18.578125 20.097656 18.472656 19.441406 18.472656 18.714844 L 18.472656 10.710938 C 18.472656 9.996094 18.578125 9.347656 18.789062 8.761719 C 19 8.167969 19.367188 7.660156 19.902344 7.238281 C 20.441406 6.8125 21.1875 6.488281 22.140625 6.253906 C 23.089844 6.023438 24.289062 5.90625 25.734375 5.90625 C 27.183594 5.90625 28.382812 6.023438 29.324219 6.253906 C 30.265625 6.488281 31 6.8125 31.535156 7.238281 C 32.078125 7.660156 32.453125 8.167969 32.664062 8.761719 C 32.871094 9.347656 32.976562 9.996094 32.976562 10.710938 Z M 23.777344 17.871094 C 23.777344 18.183594 23.890625 18.445312 24.125 18.65625 C 24.363281 18.867188 24.898438 18.972656 25.734375 18.972656 C 26.574219 18.972656 27.109375 18.867188 27.339844 18.65625 C 27.582031 18.445312 27.703125 18.183594 27.703125 17.871094 L 27.703125 11.554688 C 27.703125 11.265625 27.582031 11.011719 27.339844 10.800781 C 27.109375 10.589844 26.574219 10.484375 25.734375 10.484375 C 24.898438 10.484375 24.363281 10.589844 24.125 10.800781 C 23.890625 11.011719 23.777344 11.265625 23.777344 11.554688 Z M 23.777344 17.871094 "/>
<path style=" stroke:none;fill-rule:nonzero;fill:rgb(100%,0%,100%);fill-opacity:1;" d="M 50.265625 18.714844 C 50.265625 19.441406 50.160156 20.097656 49.949219 20.679688 C 49.742188 21.265625 49.363281 21.765625 48.824219 22.191406 C 48.289062 22.605469 47.554688 22.925781 46.613281 23.15625 C 45.683594 23.386719 44.496094 23.503906 43.050781 23.503906 C 41.597656 23.503906 40.40625 23.386719 39.472656 23.15625 C 38.542969 22.925781 37.804688 22.605469 37.265625 22.191406 C 36.722656 21.765625 36.347656 21.265625 36.136719 20.679688 C 35.925781 20.097656 35.820312 19.441406 35.820312 18.714844 L 35.820312 7.101562 C 35.820312 6.808594 35.886719 6.597656 36.015625 6.464844 C 36.15625 6.328125 36.371094 6.253906 36.664062 6.253906 L 40.332031 6.253906 C 40.632812 6.253906 40.84375 6.328125 40.976562 6.464844 C 41.105469 6.597656 41.171875 6.808594 41.171875 7.101562 L 41.171875 17.808594 C 41.171875 18.121094 41.285156 18.382812 41.519531 18.59375 C 41.757812 18.804688 42.285156 18.910156 43.097656 18.910156 C 43.914062 18.910156 44.441406 18.804688 44.675781 18.59375 C 44.914062 18.382812 45.035156 18.121094 45.035156 17.808594 L 45.035156 7.101562 C 45.035156 6.808594 45.097656 6.597656 45.230469 6.464844 C 45.359375 6.328125 45.578125 6.253906 45.878906 6.253906 L 49.425781 6.253906 C 49.714844 6.253906 49.925781 6.328125 50.054688 6.464844 C 50.195312 6.597656 50.265625 6.808594 50.265625 7.101562 Z M 50.265625 18.714844 "/>
<path style=" stroke:none;fill-rule:nonzero;fill:rgb(100%,0%,100%);fill-opacity:1;" d="M 53.53125 17.128906 C 53.238281 17.128906 53.023438 17.066406 52.882812 16.933594 C 52.753906 16.792969 52.6875 16.578125 52.6875 16.285156 L 52.6875 13.128906 C 52.6875 12.835938 52.753906 12.625 52.882812 12.492188 C 53.023438 12.351562 53.238281 12.28125 53.53125 12.28125 L 59.796875 12.28125 C 60.085938 12.28125 60.296875 12.351562 60.429688 12.492188 C 60.570312 12.625 60.640625 12.835938 60.640625 13.128906 L 60.640625 16.285156 C 60.640625 16.578125 60.570312 16.792969 60.429688 16.933594 C 60.296875 17.066406 60.085938 17.128906 59.796875 17.128906 Z M 53.53125 17.128906 "/>
<path style=" stroke:none;fill-rule:nonzero;fill:rgb(100%,0%,100%);fill-opacity:1;" d="M 67.636719 23.15625 L 64.015625 23.15625 C 63.722656 23.15625 63.507812 23.09375 63.371094 22.960938 C 63.238281 22.832031 63.175781 22.613281 63.175781 22.308594 L 63.175781 7.101562 C 63.175781 6.808594 63.238281 6.597656 63.371094 6.464844 C 63.507812 6.328125 63.722656 6.253906 64.015625 6.253906 L 71.171875 6.253906 C 73.28125 6.253906 74.726562 6.675781 75.5 7.523438 C 76.28125 8.371094 76.671875 9.472656 76.671875 10.832031 L 76.671875 13.835938 C 76.671875 15.195312 76.28125 16.300781 75.5 17.144531 C 74.726562 17.992188 73.28125 18.414062 71.171875 18.414062 L 68.480469 18.414062 L 68.480469 22.308594 C 68.480469 22.613281 68.414062 22.832031 68.285156 22.960938 C 68.152344 23.09375 67.9375 23.15625 67.636719 23.15625 Z M 68.433594 10.648438 L 68.433594 14.183594 L 70.539062 14.183594 C 70.992188 14.183594 71.285156 14.070312 71.425781 13.835938 C 71.566406 13.605469 71.636719 13.339844 71.636719 13.035156 L 71.636719 11.796875 C 71.636719 11.496094 71.566406 11.230469 71.425781 10.996094 C 71.285156 10.765625 70.992188 10.648438 70.539062 10.648438 Z M 68.433594 10.648438 "/>
<path style=" stroke:none;fill-rule:nonzero;fill:rgb(100%,0%,100%);fill-opacity:1;" d="M 93.351562 18.714844 C 93.351562 19.441406 93.246094 20.097656 93.035156 20.679688 C 92.828125 21.265625 92.449219 21.765625 91.910156 22.191406 C 91.375 22.605469 90.640625 22.925781 89.699219 23.15625 C 88.757812 23.386719 87.558594 23.503906 86.105469 23.503906 C 84.664062 23.503906 83.464844 23.386719 82.515625 23.15625 C 81.558594 22.925781 80.816406 22.605469 80.273438 22.191406 C 79.742188 21.765625 79.371094 21.265625 79.164062 20.679688 C 78.953125 20.097656 78.847656 19.441406 78.847656 18.714844 L 78.847656 10.710938 C 78.847656 9.996094 78.953125 9.347656 79.164062 8.761719 C 79.371094 8.167969 79.742188 7.660156 80.273438 7.238281 C 80.816406 6.8125 81.558594 6.488281 82.515625 6.253906 C 83.464844 6.023438 84.664062 5.90625 86.105469 5.90625 C 87.558594 5.90625 88.757812 6.023438 89.699219 6.253906 C 90.640625 6.488281 91.375 6.8125 91.910156 7.238281 C 92.449219 7.660156 92.828125 8.167969 93.035156 8.761719 C 93.246094 9.347656 93.351562 9.996094 93.351562 10.710938 Z M 84.152344 17.871094 C 84.152344 18.183594 84.265625 18.445312 84.5 18.65625 C 84.738281 18.867188 85.273438 18.972656 86.105469 18.972656 C 86.949219 18.972656 87.484375 18.867188 87.714844 18.65625 C 87.957031 18.445312 88.078125 18.183594 88.078125 17.871094 L 88.078125 11.554688 C 88.078125 11.265625 87.957031 11.011719 87.714844 10.800781 C 87.484375 10.589844 86.949219 10.484375 86.105469 10.484375 C 85.273438 10.484375 84.738281 10.589844 84.5 10.800781 C 84.265625 11.011719 84.152344 11.265625 84.152344 11.554688 Z M 84.152344 17.871094 "/>
<path style=" stroke:none;fill-rule:nonzero;fill:rgb(100%,0%,100%);fill-opacity:1;" d="M 105.035156 23.15625 L 97.15625 23.15625 C 96.863281 23.15625 96.648438 23.09375 96.511719 22.960938 C 96.378906 22.832031 96.316406 22.613281 96.316406 22.308594 L 96.316406 7.101562 C 96.316406 6.808594 96.378906 6.597656 96.511719 6.464844 C 96.648438 6.328125 96.863281 6.253906 97.15625 6.253906 L 105.035156 6.253906 C 106.976562 6.253906 108.417969 6.648438 109.363281 7.433594 C 110.300781 8.21875 110.777344 9.421875 110.777344 11.042969 L 110.777344 18.367188 C 110.777344 20 110.300781 21.207031 109.363281 21.992188 C 108.417969 22.769531 106.976562 23.15625 105.035156 23.15625 Z M 101.621094 10.742188 L 101.621094 18.714844 L 104.402344 18.714844 C 104.769531 18.714844 105.046875 18.625 105.230469 18.445312 C 105.410156 18.253906 105.5 17.960938 105.5 17.566406 L 105.5 11.875 C 105.5 11.480469 105.410156 11.195312 105.230469 11.011719 C 105.046875 10.832031 104.769531 10.742188 104.402344 10.742188 Z M 101.621094 10.742188 "/>
<path style=" stroke:none;fill-rule:nonzero;fill:rgb(0%,100%,100%);fill-opacity:1;" d="M 12.003906 22.015625 L 8.230469 22.015625 C 7.929688 22.015625 7.710938 21.953125 7.582031 21.820312 C 7.453125 21.691406 7.386719 21.472656 7.386719 21.167969 L 7.386719 18.164062 L 3.808594 13.359375 C 3.449219 12.871094 3.207031 12.445312 3.089844 12.09375 C 2.976562 11.730469 2.921875 11.1875 2.921875 10.460938 L 2.921875 5.960938 C 2.921875 5.667969 2.988281 5.457031 3.117188 5.324219 C 3.246094 5.1875 3.464844 5.113281 3.765625 5.113281 L 7.359375 5.113281 C 7.660156 5.113281 7.871094 5.1875 8.003906 5.324219 C 8.132812 5.457031 8.199219 5.667969 8.199219 5.960938 L 8.199219 9.8125 C 8.199219 9.960938 8.203125 10.128906 8.214844 10.308594 C 8.234375 10.484375 8.296875 10.640625 8.410156 10.792969 L 9.492188 12.484375 C 9.558594 12.628906 9.636719 12.726562 9.71875 12.785156 C 9.808594 12.847656 9.917969 12.878906 10.046875 12.878906 L 10.273438 12.878906 C 10.402344 12.878906 10.507812 12.847656 10.589844 12.785156 C 10.679688 12.726562 10.761719 12.628906 10.84375 12.484375 L 11.914062 10.792969 C 12.019531 10.640625 12.082031 10.484375 12.09375 10.308594 C 12.113281 10.128906 12.121094 9.960938 12.121094 9.8125 L 12.121094 5.960938 C 12.121094 5.667969 12.1875 5.457031 12.316406 5.324219 C 12.457031 5.1875 12.671875 5.113281 12.964844 5.113281 L 16.453125 5.113281 C 16.742188 5.113281 16.953125 5.1875 17.082031 5.324219 C 17.222656 5.457031 17.292969 5.667969 17.292969 5.960938 L 17.292969 10.460938 C 17.292969 11.1875 17.226562 11.730469 17.097656 12.09375 C 16.976562 12.445312 16.746094 12.871094 16.40625 13.359375 L 12.84375 18.195312 L 12.84375 21.167969 C 12.84375 21.472656 12.777344 21.691406 12.648438 21.820312 C 12.515625 21.953125 12.304688 22.015625 12.003906 22.015625 Z M 12.003906 22.015625 "/>
<path style=" stroke:none;fill-rule:nonzero;fill:rgb(0%,100%,100%);fill-opacity:1;" d="M 34.195312 17.574219 C 34.195312 18.300781 34.089844 18.957031 33.878906 19.539062 C 33.667969 20.125 33.292969 20.625 32.753906 21.050781 C 32.21875 21.464844 31.480469 21.785156 30.542969 22.015625 C 29.597656 22.246094 28.402344 22.363281 26.949219 22.363281 C 25.507812 22.363281 24.308594 22.246094 23.355469 22.015625 C 22.402344 21.785156 21.660156 21.464844 21.117188 21.050781 C 20.585938 20.625 20.214844 20.125 20.003906 19.539062 C 19.792969 18.957031 19.691406 18.300781 19.691406 17.574219 L 19.691406 9.570312 C 19.691406 8.855469 19.792969 8.207031 20.003906 7.621094 C 20.214844 7.027344 20.585938 6.519531 21.117188 6.097656 C 21.660156 5.671875 22.402344 5.347656 23.355469 5.113281 C 24.308594 4.882812 25.507812 4.765625 26.949219 4.765625 C 28.402344 4.765625 29.597656 4.882812 30.542969 5.113281 C 31.480469 5.347656 32.21875 5.671875 32.753906 6.097656 C 33.292969 6.519531 33.667969 7.027344 33.878906 7.621094 C 34.089844 8.207031 34.195312 8.855469 34.195312 9.570312 Z M 24.996094 16.730469 C 24.996094 17.042969 25.109375 17.304688 25.339844 17.515625 C 25.582031 17.726562 26.117188 17.832031 26.949219 17.832031 C 27.792969 17.832031 28.324219 17.726562 28.558594 17.515625 C 28.800781 17.304688 28.917969 17.042969 28.917969 16.730469 L 28.917969 10.414062 C 28.917969 10.125 28.800781 9.871094 28.558594 9.660156 C 28.324219 9.449219 27.792969 9.34375 26.949219 9.34375 C 26.117188 9.34375 25.582031 9.449219 25.339844 9.660156 C 25.109375 9.871094 24.996094 10.125 24.996094 10.414062 Z M 24.996094 16.730469 "/>
<path style=" stroke:none;fill-rule:nonzero;fill:rgb(0%,100%,100%);fill-opacity:1;" d="M 51.484375 17.574219 C 51.484375 18.300781 51.378906 18.957031 51.167969 19.539062 C 50.957031 20.125 50.582031 20.625 50.039062 21.050781 C 49.507812 21.464844 48.769531 21.785156 47.832031 22.015625 C 46.898438 22.246094 45.710938 22.363281 44.269531 22.363281 C 42.8125 22.363281 41.621094 22.246094 40.691406 22.015625 C 39.757812 21.785156 39.023438 21.464844 38.480469 21.050781 C 37.941406 20.625 37.5625 20.125 37.355469 19.539062 C 37.144531 18.957031 37.039062 18.300781 37.039062 17.574219 L 37.039062 5.960938 C 37.039062 5.667969 37.101562 5.457031 37.234375 5.324219 C 37.371094 5.1875 37.585938 5.113281 37.878906 5.113281 L 41.546875 5.113281 C 41.847656 5.113281 42.0625 5.1875 42.195312 5.324219 C 42.320312 5.457031 42.390625 5.667969 42.390625 5.960938 L 42.390625 16.667969 C 42.390625 16.980469 42.503906 17.242188 42.734375 17.453125 C 42.976562 17.664062 43.5 17.769531 44.3125 17.769531 C 45.132812 17.769531 45.660156 17.664062 45.890625 17.453125 C 46.132812 17.242188 46.253906 16.980469 46.253906 16.667969 L 46.253906 5.960938 C 46.253906 5.667969 46.316406 5.457031 46.449219 5.324219 C 46.574219 5.1875 46.792969 5.113281 47.09375 5.113281 L 50.640625 5.113281 C 50.929688 5.113281 51.140625 5.1875 51.273438 5.324219 C 51.410156 5.457031 51.484375 5.667969 51.484375 5.960938 Z M 51.484375 17.574219 "/>
<path style=" stroke:none;fill-rule:nonzero;fill:rgb(0%,100%,100%);fill-opacity:1;" d="M 54.746094 15.988281 C 54.453125 15.988281 54.238281 15.925781 54.101562 15.792969 C 53.96875 15.652344 53.90625 15.4375 53.90625 15.144531 L 53.90625 11.988281 C 53.90625 11.695312 53.96875 11.484375 54.101562 11.351562 C 54.238281 11.210938 54.453125 11.140625 54.746094 11.140625 L 61.015625 11.140625 C 61.304688 11.140625 61.515625 11.210938 61.644531 11.351562 C 61.785156 11.484375 61.855469 11.695312 61.855469 11.988281 L 61.855469 15.144531 C 61.855469 15.4375 61.785156 15.652344 61.644531 15.792969 C 61.515625 15.925781 61.304688 15.988281 61.015625 15.988281 Z M 54.746094 15.988281 "/>
<path style=" stroke:none;fill-rule:nonzero;fill:rgb(0%,100%,100%);fill-opacity:1;" d="M 68.855469 22.015625 L 65.234375 22.015625 C 64.941406 22.015625 64.726562 21.953125 64.585938 21.820312 C 64.453125 21.691406 64.390625 21.472656 64.390625 21.167969 L 64.390625 5.960938 C 64.390625 5.667969 64.453125 5.457031 64.585938 5.324219 C 64.726562 5.1875 64.941406 5.113281 65.234375 5.113281 L 72.386719 5.113281 C 74.5 5.113281 75.941406 5.535156 76.71875 6.382812 C 77.5 7.230469 77.890625 8.332031 77.890625 9.691406 L 77.890625 12.695312 C 77.890625 14.054688 77.5 15.160156 76.71875 16.003906 C 75.941406 16.851562 74.5 17.273438 72.386719 17.273438 L 69.695312 17.273438 L 69.695312 21.167969 C 69.695312 21.472656 69.628906 21.691406 69.5 21.820312 C 69.371094 21.953125 69.15625 22.015625 68.855469 22.015625 Z M 69.652344 9.507812 L 69.652344 13.042969 L 71.757812 13.042969 C 72.207031 13.042969 72.5 12.929688 72.644531 12.695312 C 72.78125 12.464844 72.855469 12.199219 72.855469 11.894531 L 72.855469 10.65625 C 72.855469 10.355469 72.78125 10.089844 72.644531 9.855469 C 72.5 9.625 72.207031 9.507812 71.757812 9.507812 Z M 69.652344 9.507812 "/>
<path style=" stroke:none;fill-rule:nonzero;fill:rgb(0%,100%,100%);fill-opacity:1;" d="M 94.570312 17.574219 C 94.570312 18.300781 94.464844 18.957031 94.253906 19.539062 C 94.042969 20.125 93.667969 20.625 93.125 21.050781 C 92.59375 21.464844 91.855469 21.785156 90.917969 22.015625 C 89.972656 22.246094 88.773438 22.363281 87.324219 22.363281 C 85.882812 22.363281 84.683594 22.246094 83.730469 22.015625 C 82.777344 21.785156 82.03125 21.464844 81.492188 21.050781 C 80.957031 20.625 80.589844 20.125 80.378906 19.539062 C 80.167969 18.957031 80.0625 18.300781 80.0625 17.574219 L 80.0625 9.570312 C 80.0625 8.855469 80.167969 8.207031 80.378906 7.621094 C 80.589844 7.027344 80.957031 6.519531 81.492188 6.097656 C 82.03125 5.671875 82.777344 5.347656 83.730469 5.113281 C 84.683594 4.882812 85.882812 4.765625 87.324219 4.765625 C 88.773438 4.765625 89.972656 4.882812 90.917969 5.113281 C 91.855469 5.347656 92.59375 5.671875 93.125 6.097656 C 93.667969 6.519531 94.042969 7.027344 94.253906 7.621094 C 94.464844 8.207031 94.570312 8.855469 94.570312 9.570312 Z M 85.371094 16.730469 C 85.371094 17.042969 85.484375 17.304688 85.714844 17.515625 C 85.957031 17.726562 86.488281 17.832031 87.324219 17.832031 C 88.164062 17.832031 88.699219 17.726562 88.933594 17.515625 C 89.171875 17.304688 89.292969 17.042969 89.292969 16.730469 L 89.292969 10.414062 C 89.292969 10.125 89.171875 9.871094 88.933594 9.660156 C 88.699219 9.449219 88.164062 9.34375 87.324219 9.34375 C 86.488281 9.34375 85.957031 9.449219 85.714844 9.660156 C 85.484375 9.871094 85.371094 10.125 85.371094 10.414062 Z M 85.371094 16.730469 "/>
<g clip-path="url(#clip3)" clip-rule="nonzero">
<path style=" stroke:none;fill-rule:nonzero;fill:rgb(0%,100%,100%);fill-opacity:1;" d="M 106.25 22.015625 L 98.375 22.015625 C 98.082031 22.015625 97.867188 21.953125 97.726562 21.820312 C 97.597656 21.691406 97.53125 21.472656 97.53125 21.167969 L 97.53125 5.960938 C 97.53125 5.667969 97.597656 5.457031 97.726562 5.324219 C 97.867188 5.1875 98.082031 5.113281 98.375 5.113281 L 106.25 5.113281 C 108.195312 5.113281 109.636719 5.507812 110.578125 6.292969 C 111.519531 7.078125 111.992188 8.28125 111.992188 9.902344 L 111.992188 17.226562 C 111.992188 18.859375 111.519531 20.066406 110.578125 20.851562 C 109.636719 21.628906 108.195312 22.015625 106.25 22.015625 Z M 102.839844 9.601562 L 102.839844 17.574219 L 105.621094 17.574219 C 105.988281 17.574219 106.265625 17.484375 106.445312 17.304688 C 106.625 17.113281 106.71875 16.820312 106.71875 16.425781 L 106.71875 10.734375 C 106.71875 10.339844 106.625 10.054688 106.445312 9.871094 C 106.265625 9.691406 105.988281 9.601562 105.621094 9.601562 Z M 102.839844 9.601562 "/>
</g>
<path style=" stroke:none;fill-rule:nonzero;fill:rgb(47.058824%,26.27451%,90.196078%);fill-opacity:1;" d="M 11.394531 22.585938 L 7.621094 22.585938 C 7.320312 22.585938 7.101562 22.523438 6.976562 22.390625 C 6.84375 22.261719 6.777344 22.042969 6.777344 21.738281 L 6.777344 18.734375 L 3.203125 13.929688 C 2.839844 13.441406 2.601562 13.015625 2.480469 12.664062 C 2.367188 12.300781 2.316406 11.757812 2.316406 11.03125 L 2.316406 6.53125 C 2.316406 6.238281 2.378906 6.027344 2.511719 5.894531 C 2.636719 5.757812 2.855469 5.683594 3.15625 5.683594 L 6.75 5.683594 C 7.050781 5.683594 7.265625 5.757812 7.394531 5.894531 C 7.523438 6.027344 7.589844 6.238281 7.589844 6.53125 L 7.589844 10.382812 C 7.589844 10.53125 7.59375 10.699219 7.605469 10.878906 C 7.625 11.054688 7.6875 11.210938 7.800781 11.363281 L 8.882812 13.054688 C 8.953125 13.199219 9.027344 13.296875 9.109375 13.355469 C 9.199219 13.417969 9.308594 13.449219 9.441406 13.449219 L 9.664062 13.449219 C 9.792969 13.449219 9.898438 13.417969 9.980469 13.355469 C 10.070312 13.296875 10.152344 13.199219 10.238281 13.054688 L 11.304688 11.363281 C 11.414062 11.210938 11.472656 11.054688 11.484375 10.878906 C 11.503906 10.699219 11.515625 10.53125 11.515625 10.382812 L 11.515625 6.53125 C 11.515625 6.238281 11.578125 6.027344 11.710938 5.894531 C 11.847656 5.757812 12.0625 5.683594 12.355469 5.683594 L 15.84375 5.683594 C 16.132812 5.683594 16.34375 5.757812 16.476562 5.894531 C 16.613281 6.027344 16.683594 6.238281 16.683594 6.53125 L 16.683594 11.03125 C 16.683594 11.757812 16.617188 12.300781 16.488281 12.664062 C 16.371094 13.015625 16.136719 13.441406 15.796875 13.929688 L 12.234375 18.765625 L 12.234375 21.738281 C 12.234375 22.042969 12.167969 22.261719 12.039062 22.390625 C 11.910156 22.523438 11.695312 22.585938 11.394531 22.585938 Z M 11.394531 22.585938 "/>
<path style=" stroke:none;fill-rule:nonzero;fill:rgb(47.058824%,26.27451%,90.196078%);fill-opacity:1;" d="M 33.585938 18.144531 C 33.585938 18.871094 33.480469 19.527344 33.269531 20.109375 C 33.0625 20.695312 32.683594 21.195312 32.144531 21.621094 C 31.609375 22.035156 30.875 22.355469 29.933594 22.585938 C 28.992188 22.816406 27.792969 22.933594 26.339844 22.933594 C 24.898438 22.933594 23.699219 22.816406 22.75 22.585938 C 21.792969 22.355469 21.050781 22.035156 20.507812 21.621094 C 19.976562 21.195312 19.605469 20.695312 19.398438 20.109375 C 19.1875 19.527344 19.082031 18.871094 19.082031 18.144531 L 19.082031 10.140625 C 19.082031 9.425781 19.1875 8.777344 19.398438 8.191406 C 19.605469 7.597656 19.976562 7.089844 20.507812 6.667969 C 21.050781 6.242188 21.792969 5.917969 22.75 5.683594 C 23.699219 5.453125 24.898438 5.335938 26.339844 5.335938 C 27.792969 5.335938 28.992188 5.453125 29.933594 5.683594 C 30.875 5.917969 31.609375 6.242188 32.144531 6.667969 C 32.683594 7.089844 33.0625 7.597656 33.269531 8.191406 C 33.480469 8.777344 33.585938 9.425781 33.585938 10.140625 Z M 24.386719 17.300781 C 24.386719 17.613281 24.5 17.875 24.734375 18.085938 C 24.972656 18.296875 25.507812 18.402344 26.339844 18.402344 C 27.183594 18.402344 27.71875 18.296875 27.949219 18.085938 C 28.191406 17.875 28.3125 17.613281 28.3125 17.300781 L 28.3125 10.984375 C 28.3125 10.695312 28.191406 10.441406 27.949219 10.230469 C 27.71875 10.019531 27.183594 9.914062 26.339844 9.914062 C 25.507812 9.914062 24.972656 10.019531 24.734375 10.230469 C 24.5 10.441406 24.386719 10.695312 24.386719 10.984375 Z M 24.386719 17.300781 "/>
<path style=" stroke:none;fill-rule:nonzero;fill:rgb(47.058824%,26.27451%,90.196078%);fill-opacity:1;" d="M 50.875 18.144531 C 50.875 18.871094 50.769531 19.527344 50.558594 20.109375 C 50.347656 20.695312 49.972656 21.195312 49.433594 21.621094 C 48.898438 22.035156 48.160156 22.355469 47.222656 22.585938 C 46.289062 22.816406 45.101562 22.933594 43.660156 22.933594 C 42.207031 22.933594 41.015625 22.816406 40.082031 22.585938 C 39.148438 22.355469 38.414062 22.035156 37.871094 21.621094 C 37.332031 21.195312 36.957031 20.695312 36.746094 20.109375 C 36.535156 19.527344 36.429688 18.871094 36.429688 18.144531 L 36.429688 6.53125 C 36.429688 6.238281 36.492188 6.027344 36.625 5.894531 C 36.765625 5.757812 36.976562 5.683594 37.269531 5.683594 L 40.9375 5.683594 C 41.238281 5.683594 41.453125 5.757812 41.585938 5.894531 C 41.714844 6.027344 41.78125 6.238281 41.78125 6.53125 L 41.78125 17.238281 C 41.78125 17.550781 41.894531 17.8125 42.125 18.023438 C 42.367188 18.234375 42.894531 18.339844 43.703125 18.339844 C 44.523438 18.339844 45.050781 18.234375 45.28125 18.023438 C 45.523438 17.8125 45.644531 17.550781 45.644531 17.238281 L 45.644531 6.53125 C 45.644531 6.238281 45.707031 6.027344 45.839844 5.894531 C 45.96875 5.757812 46.183594 5.683594 46.484375 5.683594 L 50.03125 5.683594 C 50.324219 5.683594 50.53125 5.757812 50.664062 5.894531 C 50.804688 6.027344 50.875 6.238281 50.875 6.53125 Z M 50.875 18.144531 "/>
<path style=" stroke:none;fill-rule:nonzero;fill:rgb(47.058824%,26.27451%,90.196078%);fill-opacity:1;" d="M 54.136719 16.558594 C 53.84375 16.558594 53.632812 16.496094 53.492188 16.363281 C 53.359375 16.222656 53.296875 16.007812 53.296875 15.714844 L 53.296875 12.558594 C 53.296875 12.265625 53.359375 12.054688 53.492188 11.921875 C 53.632812 11.78125 53.84375 11.710938 54.136719 11.710938 L 60.40625 11.710938 C 60.695312 11.710938 60.90625 11.78125 61.039062 11.921875 C 61.175781 12.054688 61.25 12.265625 61.25 12.558594 L 61.25 15.714844 C 61.25 16.007812 61.175781 16.222656 61.039062 16.363281 C 60.90625 16.496094 60.695312 16.558594 60.40625 16.558594 Z M 54.136719 16.558594 "/>
<path style=" stroke:none;fill-rule:nonzero;fill:rgb(47.058824%,26.27451%,90.196078%);fill-opacity:1;" d="M 68.246094 22.585938 L 64.625 22.585938 C 64.332031 22.585938 64.117188 22.523438 63.976562 22.390625 C 63.847656 22.261719 63.78125 22.042969 63.78125 21.738281 L 63.78125 6.53125 C 63.78125 6.238281 63.847656 6.027344 63.976562 5.894531 C 64.117188 5.757812 64.332031 5.683594 64.625 5.683594 L 71.777344 5.683594 C 73.890625 5.683594 75.335938 6.105469 76.109375 6.953125 C 76.890625 7.800781 77.28125 8.902344 77.28125 10.261719 L 77.28125 13.265625 C 77.28125 14.625 76.890625 15.730469 76.109375 16.574219 C 75.335938 17.421875 73.890625 17.84375 71.777344 17.84375 L 69.089844 17.84375 L 69.089844 21.738281 C 69.089844 22.042969 69.019531 22.261719 68.894531 22.390625 C 68.761719 22.523438 68.546875 22.585938 68.246094 22.585938 Z M 69.042969 10.078125 L 69.042969 13.613281 L 71.148438 13.613281 C 71.597656 13.613281 71.890625 13.5 72.035156 13.265625 C 72.171875 13.035156 72.246094 12.769531 72.246094 12.464844 L 72.246094 11.226562 C 72.246094 10.925781 72.171875 10.660156 72.035156 10.425781 C 71.890625 10.195312 71.597656 10.078125 71.148438 10.078125 Z M 69.042969 10.078125 "/>
<path style=" stroke:none;fill-rule:nonzero;fill:rgb(47.058824%,26.27451%,90.196078%);fill-opacity:1;" d="M 93.960938 18.144531 C 93.960938 18.871094 93.855469 19.527344 93.644531 20.109375 C 93.433594 20.695312 93.058594 21.195312 92.519531 21.621094 C 91.984375 22.035156 91.246094 22.355469 90.308594 22.585938 C 89.363281 22.816406 88.167969 22.933594 86.714844 22.933594 C 85.273438 22.933594 84.074219 22.816406 83.125 22.585938 C 82.167969 22.355469 81.425781 22.035156 80.882812 21.621094 C 80.351562 21.195312 79.980469 20.695312 79.769531 20.109375 C 79.5625 19.527344 79.457031 18.871094 79.457031 18.144531 L 79.457031 10.140625 C 79.457031 9.425781 79.5625 8.777344 79.769531 8.191406 C 79.980469 7.597656 80.351562 7.089844 80.882812 6.667969 C 81.425781 6.242188 82.167969 5.917969 83.125 5.683594 C 84.074219 5.453125 85.273438 5.335938 86.714844 5.335938 C 88.167969 5.335938 89.363281 5.453125 90.308594 5.683594 C 91.246094 5.917969 91.984375 6.242188 92.519531 6.667969 C 93.058594 7.089844 93.433594 7.597656 93.644531 8.191406 C 93.855469 8.777344 93.960938 9.425781 93.960938 10.140625 Z M 84.761719 17.300781 C 84.761719 17.613281 84.875 17.875 85.105469 18.085938 C 85.347656 18.296875 85.882812 18.402344 86.714844 18.402344 C 87.558594 18.402344 88.089844 18.296875 88.324219 18.085938 C 88.566406 17.875 88.683594 17.613281 88.683594 17.300781 L 88.683594 10.984375 C 88.683594 10.695312 88.566406 10.441406 88.324219 10.230469 C 88.089844 10.019531 87.558594 9.914062 86.714844 9.914062 C 85.882812 9.914062 85.347656 10.019531 85.105469 10.230469 C 84.875 10.441406 84.761719 10.695312 84.761719 10.984375 Z M 84.761719 17.300781 "/>
<path style=" stroke:none;fill-rule:nonzero;fill:rgb(47.058824%,26.27451%,90.196078%);fill-opacity:1;" d="M 105.640625 22.585938 L 97.765625 22.585938 C 97.472656 22.585938 97.257812 22.523438 97.121094 22.390625 C 96.988281 22.261719 96.925781 22.042969 96.925781 21.738281 L 96.925781 6.53125 C 96.925781 6.238281 96.988281 6.027344 97.121094 5.894531 C 97.257812 5.757812 97.472656 5.683594 97.765625 5.683594 L 105.640625 5.683594 C 107.585938 5.683594 109.027344 6.078125 109.972656 6.863281 C 110.910156 7.648438 111.382812 8.851562 111.382812 10.472656 L 111.382812 17.796875 C 111.382812 19.429688 110.910156 20.636719 109.972656 21.421875 C 109.027344 22.199219 107.585938 22.585938 105.640625 22.585938 Z M 102.230469 10.171875 L 102.230469 18.144531 L 105.011719 18.144531 C 105.378906 18.144531 105.65625 18.054688 105.835938 17.875 C 106.019531 17.683594 106.109375 17.390625 106.109375 16.996094 L 106.109375 11.304688 C 106.109375 10.910156 106.019531 10.625 105.835938 10.441406 C 105.65625 10.261719 105.378906 10.171875 105.011719 10.171875 Z M 102.230469 10.171875 "/>
</g>
</svg>
