<svg xmlns="http://www.w3.org/2000/svg" xmlns:xlink="http://www.w3.org/1999/xlink" width="1000" zoomAndPan="magnify" viewBox="0 0 750 187.499995" height="250" preserveAspectRatio="xMidYMid meet" version="1.0"><defs><g/></defs><g fill="#ff00ff" fill-opacity="1"><g transform="translate(-5.429506, 154.408524)"><g><path d="M 68.4375 0 L 42.890625 0 C 40.890625 0 39.441406 -0.445312 38.546875 -1.34375 C 37.660156 -2.238281 37.21875 -3.679688 37.21875 -5.671875 L 37.21875 -25.859375 L 13.09375 -58.1875 C 10.675781 -61.445312 9.070312 -64.285156 8.28125 -66.703125 C 7.488281 -69.117188 7.09375 -72.742188 7.09375 -77.578125 L 7.09375 -107.859375 C 7.09375 -109.859375 7.539062 -111.300781 8.4375 -112.1875 C 9.332031 -113.082031 10.773438 -113.53125 12.765625 -113.53125 L 37.0625 -113.53125 C 39.050781 -113.53125 40.492188 -113.082031 41.390625 -112.1875 C 42.285156 -111.300781 42.734375 -109.859375 42.734375 -107.859375 L 42.734375 -82 C 42.734375 -80.945312 42.785156 -79.84375 42.890625 -78.6875 C 42.992188 -77.53125 43.414062 -76.425781 44.15625 -75.375 L 51.40625 -64.015625 C 51.925781 -63.078125 52.472656 -62.394531 53.046875 -61.96875 C 53.628906 -61.550781 54.34375 -61.34375 55.1875 -61.34375 L 56.765625 -61.34375 C 57.609375 -61.34375 58.316406 -61.550781 58.890625 -61.96875 C 59.472656 -62.394531 60.023438 -63.078125 60.546875 -64.015625 L 67.8125 -75.375 C 68.539062 -76.425781 68.957031 -77.53125 69.0625 -78.6875 C 69.164062 -79.84375 69.21875 -80.945312 69.21875 -82 L 69.21875 -107.859375 C 69.21875 -109.859375 69.664062 -111.300781 70.5625 -112.1875 C 71.457031 -113.082031 72.90625 -113.53125 74.90625 -113.53125 L 98.390625 -113.53125 C 100.390625 -113.53125 101.835938 -113.082031 102.734375 -112.1875 C 103.628906 -111.300781 104.078125 -109.859375 104.078125 -107.859375 L 104.078125 -77.578125 C 104.078125 -72.742188 103.65625 -69.117188 102.8125 -66.703125 C 101.96875 -64.285156 100.390625 -61.445312 98.078125 -58.1875 L 74.109375 -25.703125 L 74.109375 -5.671875 C 74.109375 -3.679688 73.660156 -2.238281 72.765625 -1.34375 C 71.878906 -0.445312 70.4375 0 68.4375 0 Z M 68.4375 0 "/></g></g></g><g fill="#ff00ff" fill-opacity="1"><g transform="translate(105.741557, 154.408524)"><g><path d="M 107.0625 -29.796875 C 107.0625 -24.960938 106.351562 -20.570312 104.9375 -16.625 C 103.519531 -12.6875 101 -9.320312 97.375 -6.53125 C 93.75 -3.75 88.753906 -1.570312 82.390625 0 C 76.035156 1.570312 67.96875 2.359375 58.1875 2.359375 C 48.40625 2.359375 40.304688 1.570312 33.890625 0 C 27.484375 -1.570312 22.46875 -3.75 18.84375 -6.53125 C 15.21875 -9.320312 12.691406 -12.6875 11.265625 -16.625 C 9.847656 -20.570312 9.140625 -24.960938 9.140625 -29.796875 L 9.140625 -83.578125 C 9.140625 -88.410156 9.847656 -92.796875 11.265625 -96.734375 C 12.691406 -100.679688 15.21875 -104.070312 18.84375 -106.90625 C 22.46875 -109.75 27.484375 -111.957031 33.890625 -113.53125 C 40.304688 -115.113281 48.40625 -115.90625 58.1875 -115.90625 C 67.96875 -115.90625 76.035156 -115.113281 82.390625 -113.53125 C 88.753906 -111.957031 93.75 -109.75 97.375 -106.90625 C 101 -104.070312 103.519531 -100.679688 104.9375 -96.734375 C 106.351562 -92.796875 107.0625 -88.410156 107.0625 -83.578125 Z M 44.9375 -35.484375 C 44.9375 -33.378906 45.722656 -31.613281 47.296875 -30.1875 C 48.878906 -28.769531 52.507812 -28.0625 58.1875 -28.0625 C 63.863281 -28.0625 67.488281 -28.769531 69.0625 -30.1875 C 70.644531 -31.613281 71.4375 -33.378906 71.4375 -35.484375 L 71.4375 -77.890625 C 71.4375 -79.890625 70.644531 -81.597656 69.0625 -83.015625 C 67.488281 -84.441406 63.863281 -85.15625 58.1875 -85.15625 C 52.507812 -85.15625 48.878906 -84.441406 47.296875 -83.015625 C 45.722656 -81.597656 44.9375 -79.890625 44.9375 -77.890625 Z M 44.9375 -35.484375 "/></g></g></g><g fill="#ff00ff" fill-opacity="1"><g transform="translate(221.958675, 154.408524)"><g><path d="M 107.546875 -29.796875 C 107.546875 -24.960938 106.832031 -20.570312 105.40625 -16.625 C 103.988281 -12.6875 101.46875 -9.320312 97.84375 -6.53125 C 94.21875 -3.75 89.25 -1.570312 82.9375 0 C 76.632812 1.570312 68.59375 2.359375 58.8125 2.359375 C 49.039062 2.359375 41 1.570312 34.6875 0 C 28.382812 -1.570312 23.414062 -3.75 19.78125 -6.53125 C 16.15625 -9.320312 13.632812 -12.6875 12.21875 -16.625 C 10.800781 -20.570312 10.09375 -24.960938 10.09375 -29.796875 L 10.09375 -107.859375 C 10.09375 -109.859375 10.535156 -111.300781 11.421875 -112.1875 C 12.316406 -113.082031 13.765625 -113.53125 15.765625 -113.53125 L 40.53125 -113.53125 C 42.519531 -113.53125 43.960938 -113.082031 44.859375 -112.1875 C 45.753906 -111.300781 46.203125 -109.859375 46.203125 -107.859375 L 46.203125 -35.953125 C 46.203125 -33.847656 46.988281 -32.085938 48.5625 -30.671875 C 50.144531 -29.253906 53.664062 -28.546875 59.125 -28.546875 C 64.695312 -28.546875 68.269531 -29.253906 69.84375 -30.671875 C 71.425781 -32.085938 72.21875 -33.847656 72.21875 -35.953125 L 72.21875 -107.859375 C 72.21875 -109.859375 72.664062 -111.300781 73.5625 -112.1875 C 74.457031 -113.082031 75.898438 -113.53125 77.890625 -113.53125 L 101.859375 -113.53125 C 103.859375 -113.53125 105.304688 -113.082031 106.203125 -112.1875 C 107.097656 -111.300781 107.546875 -109.859375 107.546875 -107.859375 Z M 107.546875 -29.796875 "/></g></g></g><g fill="#ff00ff" fill-opacity="1"><g transform="translate(339.594997, 154.408524)"><g><path d="M 11.984375 -40.53125 C 9.984375 -40.53125 8.535156 -40.972656 7.640625 -41.859375 C 6.753906 -42.753906 6.3125 -44.203125 6.3125 -46.203125 L 6.3125 -67.328125 C 6.3125 -69.328125 6.753906 -70.773438 7.640625 -71.671875 C 8.535156 -72.566406 9.984375 -73.015625 11.984375 -73.015625 L 54.25 -73.015625 C 56.238281 -73.015625 57.679688 -72.566406 58.578125 -71.671875 C 59.472656 -70.773438 59.921875 -69.328125 59.921875 -67.328125 L 59.921875 -46.203125 C 59.921875 -44.203125 59.472656 -42.753906 58.578125 -41.859375 C 57.679688 -40.972656 56.238281 -40.53125 54.25 -40.53125 Z M 11.984375 -40.53125 "/></g></g></g><g fill="#ff00ff" fill-opacity="1"><g transform="translate(405.824565, 154.408524)"><g><path d="M 41 0 L 16.5625 0 C 14.5625 0 13.113281 -0.445312 12.21875 -1.34375 C 11.320312 -2.238281 10.875 -3.679688 10.875 -5.671875 L 10.875 -107.859375 C 10.875 -109.859375 11.320312 -111.300781 12.21875 -112.1875 C 13.113281 -113.082031 14.5625 -113.53125 16.5625 -113.53125 L 64.8125 -113.53125 C 79.101562 -113.53125 88.878906 -110.691406 94.140625 -105.015625 C 99.398438 -99.335938 102.03125 -91.925781 102.03125 -82.78125 L 102.03125 -62.609375 C 102.03125 -53.460938 99.398438 -46.050781 94.140625 -40.375 C 88.878906 -34.695312 79.101562 -31.859375 64.8125 -31.859375 L 46.671875 -31.859375 L 46.671875 -5.671875 C 46.671875 -3.679688 46.222656 -2.238281 45.328125 -1.34375 C 44.441406 -0.445312 43 0 41 0 Z M 46.359375 -84.046875 L 46.359375 -60.234375 L 60.546875 -60.234375 C 63.597656 -60.234375 65.597656 -61.019531 66.546875 -62.59375 C 67.492188 -64.175781 67.96875 -65.96875 67.96875 -67.96875 L 67.96875 -76.328125 C 67.96875 -78.316406 67.492188 -80.097656 66.546875 -81.671875 C 65.597656 -83.253906 63.597656 -84.046875 60.546875 -84.046875 Z M 46.359375 -84.046875 "/></g></g></g><g fill="#ff00ff" fill-opacity="1"><g transform="translate(513.368776, 154.408524)"><g><path d="M 107.0625 -29.796875 C 107.0625 -24.960938 106.351562 -20.570312 104.9375 -16.625 C 103.519531 -12.6875 101 -9.320312 97.375 -6.53125 C 93.75 -3.75 88.753906 -1.570312 82.390625 0 C 76.035156 1.570312 67.96875 2.359375 58.1875 2.359375 C 48.40625 2.359375 40.304688 1.570312 33.890625 0 C 27.484375 -1.570312 22.46875 -3.75 18.84375 -6.53125 C 15.21875 -9.320312 12.691406 -12.6875 11.265625 -16.625 C 9.847656 -20.570312 9.140625 -24.960938 9.140625 -29.796875 L 9.140625 -83.578125 C 9.140625 -88.410156 9.847656 -92.796875 11.265625 -96.734375 C 12.691406 -100.679688 15.21875 -104.070312 18.84375 -106.90625 C 22.46875 -109.75 27.484375 -111.957031 33.890625 -113.53125 C 40.304688 -115.113281 48.40625 -115.90625 58.1875 -115.90625 C 67.96875 -115.90625 76.035156 -115.113281 82.390625 -113.53125 C 88.753906 -111.957031 93.75 -109.75 97.375 -106.90625 C 101 -104.070312 103.519531 -100.679688 104.9375 -96.734375 C 106.351562 -92.796875 107.0625 -88.410156 107.0625 -83.578125 Z M 44.9375 -35.484375 C 44.9375 -33.378906 45.722656 -31.613281 47.296875 -30.1875 C 48.878906 -28.769531 52.507812 -28.0625 58.1875 -28.0625 C 63.863281 -28.0625 67.488281 -28.769531 69.0625 -30.1875 C 70.644531 -31.613281 71.4375 -33.378906 71.4375 -35.484375 L 71.4375 -77.890625 C 71.4375 -79.890625 70.644531 -81.597656 69.0625 -83.015625 C 67.488281 -84.441406 63.863281 -85.15625 58.1875 -85.15625 C 52.507812 -85.15625 48.878906 -84.441406 47.296875 -83.015625 C 45.722656 -81.597656 44.9375 -79.890625 44.9375 -77.890625 Z M 44.9375 -35.484375 "/></g></g></g><g fill="#ff00ff" fill-opacity="1"><g transform="translate(629.585881, 154.408524)"><g><path d="M 69.703125 0 L 16.5625 0 C 14.5625 0 13.113281 -0.445312 12.21875 -1.34375 C 11.320312 -2.238281 10.875 -3.679688 10.875 -5.671875 L 10.875 -107.859375 C 10.875 -109.859375 11.320312 -111.300781 12.21875 -112.1875 C 13.113281 -113.082031 14.5625 -113.53125 16.5625 -113.53125 L 69.703125 -113.53125 C 82.835938 -113.53125 92.582031 -110.898438 98.9375 -105.640625 C 105.300781 -100.390625 108.484375 -92.296875 108.484375 -81.359375 L 108.484375 -32.171875 C 108.484375 -21.234375 105.300781 -13.132812 98.9375 -7.875 C 92.582031 -2.625 82.835938 0 69.703125 0 Z M 46.671875 -83.421875 L 46.671875 -29.796875 L 65.4375 -29.796875 C 67.957031 -29.796875 69.820312 -30.425781 71.03125 -31.6875 C 72.25 -32.957031 72.859375 -34.90625 72.859375 -37.53125 L 72.859375 -75.84375 C 72.859375 -78.476562 72.25 -80.398438 71.03125 -81.609375 C 69.820312 -82.816406 67.957031 -83.421875 65.4375 -83.421875 Z M 46.671875 -83.421875 "/></g></g></g><g fill="#00ffff" fill-opacity="1"><g transform="translate(2.787712, 146.745838)"><g><path d="M 68.4375 0 L 42.890625 0 C 40.890625 0 39.441406 -0.445312 38.546875 -1.34375 C 37.660156 -2.238281 37.21875 -3.679688 37.21875 -5.671875 L 37.21875 -25.859375 L 13.09375 -58.1875 C 10.675781 -61.445312 9.070312 -64.285156 8.28125 -66.703125 C 7.488281 -69.117188 7.09375 -72.742188 7.09375 -77.578125 L 7.09375 -107.859375 C 7.09375 -109.859375 7.539062 -111.300781 8.4375 -112.1875 C 9.332031 -113.082031 10.773438 -113.53125 12.765625 -113.53125 L 37.0625 -113.53125 C 39.050781 -113.53125 40.492188 -113.082031 41.390625 -112.1875 C 42.285156 -111.300781 42.734375 -109.859375 42.734375 -107.859375 L 42.734375 -82 C 42.734375 -80.945312 42.785156 -79.84375 42.890625 -78.6875 C 42.992188 -77.53125 43.414062 -76.425781 44.15625 -75.375 L 51.40625 -64.015625 C 51.925781 -63.078125 52.472656 -62.394531 53.046875 -61.96875 C 53.628906 -61.550781 54.34375 -61.34375 55.1875 -61.34375 L 56.765625 -61.34375 C 57.609375 -61.34375 58.316406 -61.550781 58.890625 -61.96875 C 59.472656 -62.394531 60.023438 -63.078125 60.546875 -64.015625 L 67.8125 -75.375 C 68.539062 -76.425781 68.957031 -77.53125 69.0625 -78.6875 C 69.164062 -79.84375 69.21875 -80.945312 69.21875 -82 L 69.21875 -107.859375 C 69.21875 -109.859375 69.664062 -111.300781 70.5625 -112.1875 C 71.457031 -113.082031 72.90625 -113.53125 74.90625 -113.53125 L 98.390625 -113.53125 C 100.390625 -113.53125 101.835938 -113.082031 102.734375 -112.1875 C 103.628906 -111.300781 104.078125 -109.859375 104.078125 -107.859375 L 104.078125 -77.578125 C 104.078125 -72.742188 103.65625 -69.117188 102.8125 -66.703125 C 101.96875 -64.285156 100.390625 -61.445312 98.078125 -58.1875 L 74.109375 -25.703125 L 74.109375 -5.671875 C 74.109375 -3.679688 73.660156 -2.238281 72.765625 -1.34375 C 71.878906 -0.445312 70.4375 0 68.4375 0 Z M 68.4375 0 "/></g></g></g><g fill="#00ffff" fill-opacity="1"><g transform="translate(113.958774, 146.745838)"><g><path d="M 107.0625 -29.796875 C 107.0625 -24.960938 106.351562 -20.570312 104.9375 -16.625 C 103.519531 -12.6875 101 -9.320312 97.375 -6.53125 C 93.75 -3.75 88.753906 -1.570312 82.390625 0 C 76.035156 1.570312 67.96875 2.359375 58.1875 2.359375 C 48.40625 2.359375 40.304688 1.570312 33.890625 0 C 27.484375 -1.570312 22.46875 -3.75 18.84375 -6.53125 C 15.21875 -9.320312 12.691406 -12.6875 11.265625 -16.625 C 9.847656 -20.570312 9.140625 -24.960938 9.140625 -29.796875 L 9.140625 -83.578125 C 9.140625 -88.410156 9.847656 -92.796875 11.265625 -96.734375 C 12.691406 -100.679688 15.21875 -104.070312 18.84375 -106.90625 C 22.46875 -109.75 27.484375 -111.957031 33.890625 -113.53125 C 40.304688 -115.113281 48.40625 -115.90625 58.1875 -115.90625 C 67.96875 -115.90625 76.035156 -115.113281 82.390625 -113.53125 C 88.753906 -111.957031 93.75 -109.75 97.375 -106.90625 C 101 -104.070312 103.519531 -100.679688 104.9375 -96.734375 C 106.351562 -92.796875 107.0625 -88.410156 107.0625 -83.578125 Z M 44.9375 -35.484375 C 44.9375 -33.378906 45.722656 -31.613281 47.296875 -30.1875 C 48.878906 -28.769531 52.507812 -28.0625 58.1875 -28.0625 C 63.863281 -28.0625 67.488281 -28.769531 69.0625 -30.1875 C 70.644531 -31.613281 71.4375 -33.378906 71.4375 -35.484375 L 71.4375 -77.890625 C 71.4375 -79.890625 70.644531 -81.597656 69.0625 -83.015625 C 67.488281 -84.441406 63.863281 -85.15625 58.1875 -85.15625 C 52.507812 -85.15625 48.878906 -84.441406 47.296875 -83.015625 C 45.722656 -81.597656 44.9375 -79.890625 44.9375 -77.890625 Z M 44.9375 -35.484375 "/></g></g></g><g fill="#00ffff" fill-opacity="1"><g transform="translate(230.175892, 146.745838)"><g><path d="M 107.546875 -29.796875 C 107.546875 -24.960938 106.832031 -20.570312 105.40625 -16.625 C 103.988281 -12.6875 101.46875 -9.320312 97.84375 -6.53125 C 94.21875 -3.75 89.25 -1.570312 82.9375 0 C 76.632812 1.570312 68.59375 2.359375 58.8125 2.359375 C 49.039062 2.359375 41 1.570312 34.6875 0 C 28.382812 -1.570312 23.414062 -3.75 19.78125 -6.53125 C 16.15625 -9.320312 13.632812 -12.6875 12.21875 -16.625 C 10.800781 -20.570312 10.09375 -24.960938 10.09375 -29.796875 L 10.09375 -107.859375 C 10.09375 -109.859375 10.535156 -111.300781 11.421875 -112.1875 C 12.316406 -113.082031 13.765625 -113.53125 15.765625 -113.53125 L 40.53125 -113.53125 C 42.519531 -113.53125 43.960938 -113.082031 44.859375 -112.1875 C 45.753906 -111.300781 46.203125 -109.859375 46.203125 -107.859375 L 46.203125 -35.953125 C 46.203125 -33.847656 46.988281 -32.085938 48.5625 -30.671875 C 50.144531 -29.253906 53.664062 -28.546875 59.125 -28.546875 C 64.695312 -28.546875 68.269531 -29.253906 69.84375 -30.671875 C 71.425781 -32.085938 72.21875 -33.847656 72.21875 -35.953125 L 72.21875 -107.859375 C 72.21875 -109.859375 72.664062 -111.300781 73.5625 -112.1875 C 74.457031 -113.082031 75.898438 -113.53125 77.890625 -113.53125 L 101.859375 -113.53125 C 103.859375 -113.53125 105.304688 -113.082031 106.203125 -112.1875 C 107.097656 -111.300781 107.546875 -109.859375 107.546875 -107.859375 Z M 107.546875 -29.796875 "/></g></g></g><g fill="#00ffff" fill-opacity="1"><g transform="translate(347.812215, 146.745838)"><g><path d="M 11.984375 -40.53125 C 9.984375 -40.53125 8.535156 -40.972656 7.640625 -41.859375 C 6.753906 -42.753906 6.3125 -44.203125 6.3125 -46.203125 L 6.3125 -67.328125 C 6.3125 -69.328125 6.753906 -70.773438 7.640625 -71.671875 C 8.535156 -72.566406 9.984375 -73.015625 11.984375 -73.015625 L 54.25 -73.015625 C 56.238281 -73.015625 57.679688 -72.566406 58.578125 -71.671875 C 59.472656 -70.773438 59.921875 -69.328125 59.921875 -67.328125 L 59.921875 -46.203125 C 59.921875 -44.203125 59.472656 -42.753906 58.578125 -41.859375 C 57.679688 -40.972656 56.238281 -40.53125 54.25 -40.53125 Z M 11.984375 -40.53125 "/></g></g></g><g fill="#00ffff" fill-opacity="1"><g transform="translate(414.041782, 146.745838)"><g><path d="M 41 0 L 16.5625 0 C 14.5625 0 13.113281 -0.445312 12.21875 -1.34375 C 11.320312 -2.238281 10.875 -3.679688 10.875 -5.671875 L 10.875 -107.859375 C 10.875 -109.859375 11.320312 -111.300781 12.21875 -112.1875 C 13.113281 -113.082031 14.5625 -113.53125 16.5625 -113.53125 L 64.8125 -113.53125 C 79.101562 -113.53125 88.878906 -110.691406 94.140625 -105.015625 C 99.398438 -99.335938 102.03125 -91.925781 102.03125 -82.78125 L 102.03125 -62.609375 C 102.03125 -53.460938 99.398438 -46.050781 94.140625 -40.375 C 88.878906 -34.695312 79.101562 -31.859375 64.8125 -31.859375 L 46.671875 -31.859375 L 46.671875 -5.671875 C 46.671875 -3.679688 46.222656 -2.238281 45.328125 -1.34375 C 44.441406 -0.445312 43 0 41 0 Z M 46.359375 -84.046875 L 46.359375 -60.234375 L 60.546875 -60.234375 C 63.597656 -60.234375 65.597656 -61.019531 66.546875 -62.59375 C 67.492188 -64.175781 67.96875 -65.96875 67.96875 -67.96875 L 67.96875 -76.328125 C 67.96875 -78.316406 67.492188 -80.097656 66.546875 -81.671875 C 65.597656 -83.253906 63.597656 -84.046875 60.546875 -84.046875 Z M 46.359375 -84.046875 "/></g></g></g><g fill="#00ffff" fill-opacity="1"><g transform="translate(521.585994, 146.745838)"><g><path d="M 107.0625 -29.796875 C 107.0625 -24.960938 106.351562 -20.570312 104.9375 -16.625 C 103.519531 -12.6875 101 -9.320312 97.375 -6.53125 C 93.75 -3.75 88.753906 -1.570312 82.390625 0 C 76.035156 1.570312 67.96875 2.359375 58.1875 2.359375 C 48.40625 2.359375 40.304688 1.570312 33.890625 0 C 27.484375 -1.570312 22.46875 -3.75 18.84375 -6.53125 C 15.21875 -9.320312 12.691406 -12.6875 11.265625 -16.625 C 9.847656 -20.570312 9.140625 -24.960938 9.140625 -29.796875 L 9.140625 -83.578125 C 9.140625 -88.410156 9.847656 -92.796875 11.265625 -96.734375 C 12.691406 -100.679688 15.21875 -104.070312 18.84375 -106.90625 C 22.46875 -109.75 27.484375 -111.957031 33.890625 -113.53125 C 40.304688 -115.113281 48.40625 -115.90625 58.1875 -115.90625 C 67.96875 -115.90625 76.035156 -115.113281 82.390625 -113.53125 C 88.753906 -111.957031 93.75 -109.75 97.375 -106.90625 C 101 -104.070312 103.519531 -100.679688 104.9375 -96.734375 C 106.351562 -92.796875 107.0625 -88.410156 107.0625 -83.578125 Z M 44.9375 -35.484375 C 44.9375 -33.378906 45.722656 -31.613281 47.296875 -30.1875 C 48.878906 -28.769531 52.507812 -28.0625 58.1875 -28.0625 C 63.863281 -28.0625 67.488281 -28.769531 69.0625 -30.1875 C 70.644531 -31.613281 71.4375 -33.378906 71.4375 -35.484375 L 71.4375 -77.890625 C 71.4375 -79.890625 70.644531 -81.597656 69.0625 -83.015625 C 67.488281 -84.441406 63.863281 -85.15625 58.1875 -85.15625 C 52.507812 -85.15625 48.878906 -84.441406 47.296875 -83.015625 C 45.722656 -81.597656 44.9375 -79.890625 44.9375 -77.890625 Z M 44.9375 -35.484375 "/></g></g></g><g fill="#00ffff" fill-opacity="1"><g transform="translate(637.803098, 146.745838)"><g><path d="M 69.703125 0 L 16.5625 0 C 14.5625 0 13.113281 -0.445312 12.21875 -1.34375 C 11.320312 -2.238281 10.875 -3.679688 10.875 -5.671875 L 10.875 -107.859375 C 10.875 -109.859375 11.320312 -111.300781 12.21875 -112.1875 C 13.113281 -113.082031 14.5625 -113.53125 16.5625 -113.53125 L 69.703125 -113.53125 C 82.835938 -113.53125 92.582031 -110.898438 98.9375 -105.640625 C 105.300781 -100.390625 108.484375 -92.296875 108.484375 -81.359375 L 108.484375 -32.171875 C 108.484375 -21.234375 105.300781 -13.132812 98.9375 -7.875 C 92.582031 -2.625 82.835938 0 69.703125 0 Z M 46.671875 -83.421875 L 46.671875 -29.796875 L 65.4375 -29.796875 C 67.957031 -29.796875 69.820312 -30.425781 71.03125 -31.6875 C 72.25 -32.957031 72.859375 -34.90625 72.859375 -37.53125 L 72.859375 -75.84375 C 72.859375 -78.476562 72.25 -80.398438 71.03125 -81.609375 C 69.820312 -82.816406 67.957031 -83.421875 65.4375 -83.421875 Z M 46.671875 -83.421875 "/></g></g></g><g fill="#7843e6" fill-opacity="1"><g transform="translate(-1.320898, 150.577181)"><g><path d="M 68.4375 0 L 42.890625 0 C 40.890625 0 39.441406 -0.445312 38.546875 -1.34375 C 37.660156 -2.238281 37.21875 -3.679688 37.21875 -5.671875 L 37.21875 -25.859375 L 13.09375 -58.1875 C 10.675781 -61.445312 9.070312 -64.285156 8.28125 -66.703125 C 7.488281 -69.117188 7.09375 -72.742188 7.09375 -77.578125 L 7.09375 -107.859375 C 7.09375 -109.859375 7.539062 -111.300781 8.4375 -112.1875 C 9.332031 -113.082031 10.773438 -113.53125 12.765625 -113.53125 L 37.0625 -113.53125 C 39.050781 -113.53125 40.492188 -113.082031 41.390625 -112.1875 C 42.285156 -111.300781 42.734375 -109.859375 42.734375 -107.859375 L 42.734375 -82 C 42.734375 -80.945312 42.785156 -79.84375 42.890625 -78.6875 C 42.992188 -77.53125 43.414062 -76.425781 44.15625 -75.375 L 51.40625 -64.015625 C 51.925781 -63.078125 52.472656 -62.394531 53.046875 -61.96875 C 53.628906 -61.550781 54.34375 -61.34375 55.1875 -61.34375 L 56.765625 -61.34375 C 57.609375 -61.34375 58.316406 -61.550781 58.890625 -61.96875 C 59.472656 -62.394531 60.023438 -63.078125 60.546875 -64.015625 L 67.8125 -75.375 C 68.539062 -76.425781 68.957031 -77.53125 69.0625 -78.6875 C 69.164062 -79.84375 69.21875 -80.945312 69.21875 -82 L 69.21875 -107.859375 C 69.21875 -109.859375 69.664062 -111.300781 70.5625 -112.1875 C 71.457031 -113.082031 72.90625 -113.53125 74.90625 -113.53125 L 98.390625 -113.53125 C 100.390625 -113.53125 101.835938 -113.082031 102.734375 -112.1875 C 103.628906 -111.300781 104.078125 -109.859375 104.078125 -107.859375 L 104.078125 -77.578125 C 104.078125 -72.742188 103.65625 -69.117188 102.8125 -66.703125 C 101.96875 -64.285156 100.390625 -61.445312 98.078125 -58.1875 L 74.109375 -25.703125 L 74.109375 -5.671875 C 74.109375 -3.679688 73.660156 -2.238281 72.765625 -1.34375 C 71.878906 -0.445312 70.4375 0 68.4375 0 Z M 68.4375 0 "/></g></g></g><g fill="#7843e6" fill-opacity="1"><g transform="translate(109.850164, 150.577181)"><g><path d="M 107.0625 -29.796875 C 107.0625 -24.960938 106.351562 -20.570312 104.9375 -16.625 C 103.519531 -12.6875 101 -9.320312 97.375 -6.53125 C 93.75 -3.75 88.753906 -1.570312 82.390625 0 C 76.035156 1.570312 67.96875 2.359375 58.1875 2.359375 C 48.40625 2.359375 40.304688 1.570312 33.890625 0 C 27.484375 -1.570312 22.46875 -3.75 18.84375 -6.53125 C 15.21875 -9.320312 12.691406 -12.6875 11.265625 -16.625 C 9.847656 -20.570312 9.140625 -24.960938 9.140625 -29.796875 L 9.140625 -83.578125 C 9.140625 -88.410156 9.847656 -92.796875 11.265625 -96.734375 C 12.691406 -100.679688 15.21875 -104.070312 18.84375 -106.90625 C 22.46875 -109.75 27.484375 -111.957031 33.890625 -113.53125 C 40.304688 -115.113281 48.40625 -115.90625 58.1875 -115.90625 C 67.96875 -115.90625 76.035156 -115.113281 82.390625 -113.53125 C 88.753906 -111.957031 93.75 -109.75 97.375 -106.90625 C 101 -104.070312 103.519531 -100.679688 104.9375 -96.734375 C 106.351562 -92.796875 107.0625 -88.410156 107.0625 -83.578125 Z M 44.9375 -35.484375 C 44.9375 -33.378906 45.722656 -31.613281 47.296875 -30.1875 C 48.878906 -28.769531 52.507812 -28.0625 58.1875 -28.0625 C 63.863281 -28.0625 67.488281 -28.769531 69.0625 -30.1875 C 70.644531 -31.613281 71.4375 -33.378906 71.4375 -35.484375 L 71.4375 -77.890625 C 71.4375 -79.890625 70.644531 -81.597656 69.0625 -83.015625 C 67.488281 -84.441406 63.863281 -85.15625 58.1875 -85.15625 C 52.507812 -85.15625 48.878906 -84.441406 47.296875 -83.015625 C 45.722656 -81.597656 44.9375 -79.890625 44.9375 -77.890625 Z M 44.9375 -35.484375 "/></g></g></g><g fill="#7843e6" fill-opacity="1"><g transform="translate(226.067282, 150.577181)"><g><path d="M 107.546875 -29.796875 C 107.546875 -24.960938 106.832031 -20.570312 105.40625 -16.625 C 103.988281 -12.6875 101.46875 -9.320312 97.84375 -6.53125 C 94.21875 -3.75 89.25 -1.570312 82.9375 0 C 76.632812 1.570312 68.59375 2.359375 58.8125 2.359375 C 49.039062 2.359375 41 1.570312 34.6875 0 C 28.382812 -1.570312 23.414062 -3.75 19.78125 -6.53125 C 16.15625 -9.320312 13.632812 -12.6875 12.21875 -16.625 C 10.800781 -20.570312 10.09375 -24.960938 10.09375 -29.796875 L 10.09375 -107.859375 C 10.09375 -109.859375 10.535156 -111.300781 11.421875 -112.1875 C 12.316406 -113.082031 13.765625 -113.53125 15.765625 -113.53125 L 40.53125 -113.53125 C 42.519531 -113.53125 43.960938 -113.082031 44.859375 -112.1875 C 45.753906 -111.300781 46.203125 -109.859375 46.203125 -107.859375 L 46.203125 -35.953125 C 46.203125 -33.847656 46.988281 -32.085938 48.5625 -30.671875 C 50.144531 -29.253906 53.664062 -28.546875 59.125 -28.546875 C 64.695312 -28.546875 68.269531 -29.253906 69.84375 -30.671875 C 71.425781 -32.085938 72.21875 -33.847656 72.21875 -35.953125 L 72.21875 -107.859375 C 72.21875 -109.859375 72.664062 -111.300781 73.5625 -112.1875 C 74.457031 -113.082031 75.898438 -113.53125 77.890625 -113.53125 L 101.859375 -113.53125 C 103.859375 -113.53125 105.304688 -113.082031 106.203125 -112.1875 C 107.097656 -111.300781 107.546875 -109.859375 107.546875 -107.859375 Z M 107.546875 -29.796875 "/></g></g></g><g fill="#7843e6" fill-opacity="1"><g transform="translate(343.703605, 150.577181)"><g><path d="M 11.984375 -40.53125 C 9.984375 -40.53125 8.535156 -40.972656 7.640625 -41.859375 C 6.753906 -42.753906 6.3125 -44.203125 6.3125 -46.203125 L 6.3125 -67.328125 C 6.3125 -69.328125 6.753906 -70.773438 7.640625 -71.671875 C 8.535156 -72.566406 9.984375 -73.015625 11.984375 -73.015625 L 54.25 -73.015625 C 56.238281 -73.015625 57.679688 -72.566406 58.578125 -71.671875 C 59.472656 -70.773438 59.921875 -69.328125 59.921875 -67.328125 L 59.921875 -46.203125 C 59.921875 -44.203125 59.472656 -42.753906 58.578125 -41.859375 C 57.679688 -40.972656 56.238281 -40.53125 54.25 -40.53125 Z M 11.984375 -40.53125 "/></g></g></g><g fill="#7843e6" fill-opacity="1"><g transform="translate(409.933172, 150.577181)"><g><path d="M 41 0 L 16.5625 0 C 14.5625 0 13.113281 -0.445312 12.21875 -1.34375 C 11.320312 -2.238281 10.875 -3.679688 10.875 -5.671875 L 10.875 -107.859375 C 10.875 -109.859375 11.320312 -111.300781 12.21875 -112.1875 C 13.113281 -113.082031 14.5625 -113.53125 16.5625 -113.53125 L 64.8125 -113.53125 C 79.101562 -113.53125 88.878906 -110.691406 94.140625 -105.015625 C 99.398438 -99.335938 102.03125 -91.925781 102.03125 -82.78125 L 102.03125 -62.609375 C 102.03125 -53.460938 99.398438 -46.050781 94.140625 -40.375 C 88.878906 -34.695312 79.101562 -31.859375 64.8125 -31.859375 L 46.671875 -31.859375 L 46.671875 -5.671875 C 46.671875 -3.679688 46.222656 -2.238281 45.328125 -1.34375 C 44.441406 -0.445312 43 0 41 0 Z M 46.359375 -84.046875 L 46.359375 -60.234375 L 60.546875 -60.234375 C 63.597656 -60.234375 65.597656 -61.019531 66.546875 -62.59375 C 67.492188 -64.175781 67.96875 -65.96875 67.96875 -67.96875 L 67.96875 -76.328125 C 67.96875 -78.316406 67.492188 -80.097656 66.546875 -81.671875 C 65.597656 -83.253906 63.597656 -84.046875 60.546875 -84.046875 Z M 46.359375 -84.046875 "/></g></g></g><g fill="#7843e6" fill-opacity="1"><g transform="translate(517.477384, 150.577181)"><g><path d="M 107.0625 -29.796875 C 107.0625 -24.960938 106.351562 -20.570312 104.9375 -16.625 C 103.519531 -12.6875 101 -9.320312 97.375 -6.53125 C 93.75 -3.75 88.753906 -1.570312 82.390625 0 C 76.035156 1.570312 67.96875 2.359375 58.1875 2.359375 C 48.40625 2.359375 40.304688 1.570312 33.890625 0 C 27.484375 -1.570312 22.46875 -3.75 18.84375 -6.53125 C 15.21875 -9.320312 12.691406 -12.6875 11.265625 -16.625 C 9.847656 -20.570312 9.140625 -24.960938 9.140625 -29.796875 L 9.140625 -83.578125 C 9.140625 -88.410156 9.847656 -92.796875 11.265625 -96.734375 C 12.691406 -100.679688 15.21875 -104.070312 18.84375 -106.90625 C 22.46875 -109.75 27.484375 -111.957031 33.890625 -113.53125 C 40.304688 -115.113281 48.40625 -115.90625 58.1875 -115.90625 C 67.96875 -115.90625 76.035156 -115.113281 82.390625 -113.53125 C 88.753906 -111.957031 93.75 -109.75 97.375 -106.90625 C 101 -104.070312 103.519531 -100.679688 104.9375 -96.734375 C 106.351562 -92.796875 107.0625 -88.410156 107.0625 -83.578125 Z M 44.9375 -35.484375 C 44.9375 -33.378906 45.722656 -31.613281 47.296875 -30.1875 C 48.878906 -28.769531 52.507812 -28.0625 58.1875 -28.0625 C 63.863281 -28.0625 67.488281 -28.769531 69.0625 -30.1875 C 70.644531 -31.613281 71.4375 -33.378906 71.4375 -35.484375 L 71.4375 -77.890625 C 71.4375 -79.890625 70.644531 -81.597656 69.0625 -83.015625 C 67.488281 -84.441406 63.863281 -85.15625 58.1875 -85.15625 C 52.507812 -85.15625 48.878906 -84.441406 47.296875 -83.015625 C 45.722656 -81.597656 44.9375 -79.890625 44.9375 -77.890625 Z M 44.9375 -35.484375 "/></g></g></g><g fill="#7843e6" fill-opacity="1"><g transform="translate(633.694489, 150.577181)"><g><path d="M 69.703125 0 L 16.5625 0 C 14.5625 0 13.113281 -0.445312 12.21875 -1.34375 C 11.320312 -2.238281 10.875 -3.679688 10.875 -5.671875 L 10.875 -107.859375 C 10.875 -109.859375 11.320312 -111.300781 12.21875 -112.1875 C 13.113281 -113.082031 14.5625 -113.53125 16.5625 -113.53125 L 69.703125 -113.53125 C 82.835938 -113.53125 92.582031 -110.898438 98.9375 -105.640625 C 105.300781 -100.390625 108.484375 -92.296875 108.484375 -81.359375 L 108.484375 -32.171875 C 108.484375 -21.234375 105.300781 -13.132812 98.9375 -7.875 C 92.582031 -2.625 82.835938 0 69.703125 0 Z M 46.671875 -83.421875 L 46.671875 -29.796875 L 65.4375 -29.796875 C 67.957031 -29.796875 69.820312 -30.425781 71.03125 -31.6875 C 72.25 -32.957031 72.859375 -34.90625 72.859375 -37.53125 L 72.859375 -75.84375 C 72.859375 -78.476562 72.25 -80.398438 71.03125 -81.609375 C 69.820312 -82.816406 67.957031 -83.421875 65.4375 -83.421875 Z M 46.671875 -83.421875 "/></g></g></g></svg>