<svg xmlns="http://www.w3.org/2000/svg" xmlns:xlink="http://www.w3.org/1999/xlink" width="500" zoomAndPan="magnify" viewBox="0 0 375 374.999991" height="500" preserveAspectRatio="xMidYMid meet" version="1.0"><defs><g/></defs><g fill="#ff00ff" fill-opacity="1"><g transform="translate(37.996698, 137.570484)"><g><path d="M 59.3125 0 L 37.171875 0 C 35.441406 0 34.1875 -0.382812 33.40625 -1.15625 C 32.632812 -1.9375 32.25 -3.191406 32.25 -4.921875 L 32.25 -22.421875 L 11.34375 -50.4375 C 9.25 -53.257812 7.859375 -55.71875 7.171875 -57.8125 C 6.492188 -59.90625 6.15625 -63.050781 6.15625 -67.25 L 6.15625 -93.484375 C 6.15625 -95.210938 6.539062 -96.460938 7.3125 -97.234375 C 8.082031 -98.015625 9.335938 -98.40625 11.078125 -98.40625 L 32.125 -98.40625 C 33.851562 -98.40625 35.101562 -98.015625 35.875 -97.234375 C 36.644531 -96.460938 37.03125 -95.210938 37.03125 -93.484375 L 37.03125 -71.0625 C 37.03125 -70.15625 37.078125 -69.203125 37.171875 -68.203125 C 37.265625 -67.203125 37.628906 -66.242188 38.265625 -65.328125 L 44.5625 -55.484375 C 45.007812 -54.671875 45.484375 -54.082031 45.984375 -53.71875 C 46.484375 -53.351562 47.097656 -53.171875 47.828125 -53.171875 L 49.203125 -53.171875 C 49.929688 -53.171875 50.546875 -53.351562 51.046875 -53.71875 C 51.546875 -54.082031 52.023438 -54.671875 52.484375 -55.484375 L 58.765625 -65.328125 C 59.398438 -66.242188 59.765625 -67.203125 59.859375 -68.203125 C 59.953125 -69.203125 60 -70.15625 60 -71.0625 L 60 -93.484375 C 60 -95.210938 60.382812 -96.460938 61.15625 -97.234375 C 61.9375 -98.015625 63.191406 -98.40625 64.921875 -98.40625 L 85.28125 -98.40625 C 87.007812 -98.40625 88.257812 -98.015625 89.03125 -97.234375 C 89.8125 -96.460938 90.203125 -95.210938 90.203125 -93.484375 L 90.203125 -67.25 C 90.203125 -63.050781 89.835938 -59.90625 89.109375 -57.8125 C 88.378906 -55.71875 87.015625 -53.257812 85.015625 -50.4375 L 64.234375 -22.28125 L 64.234375 -4.921875 C 64.234375 -3.191406 63.84375 -1.9375 63.0625 -1.15625 C 62.289062 -0.382812 61.039062 0 59.3125 0 Z M 59.3125 0 "/></g></g></g><g fill="#ff00ff" fill-opacity="1"><g transform="translate(134.344878, 137.570484)"><g><path d="M 92.796875 -25.828125 C 92.796875 -21.640625 92.179688 -17.835938 90.953125 -14.421875 C 89.722656 -11.003906 87.535156 -8.085938 84.390625 -5.671875 C 81.242188 -3.253906 76.914062 -1.363281 71.40625 0 C 65.894531 1.363281 58.90625 2.046875 50.4375 2.046875 C 41.957031 2.046875 34.9375 1.363281 29.375 0 C 23.820312 -1.363281 19.472656 -3.253906 16.328125 -5.671875 C 13.179688 -8.085938 10.992188 -11.003906 9.765625 -14.421875 C 8.535156 -17.835938 7.921875 -21.640625 7.921875 -25.828125 L 7.921875 -72.4375 C 7.921875 -76.625 8.535156 -80.425781 9.765625 -83.84375 C 10.992188 -87.257812 13.179688 -90.195312 16.328125 -92.65625 C 19.472656 -95.125 23.820312 -97.039062 29.375 -98.40625 C 34.9375 -99.769531 41.957031 -100.453125 50.4375 -100.453125 C 58.90625 -100.453125 65.894531 -99.769531 71.40625 -98.40625 C 76.914062 -97.039062 81.242188 -95.125 84.390625 -92.65625 C 87.535156 -90.195312 89.722656 -87.257812 90.953125 -83.84375 C 92.179688 -80.425781 92.796875 -76.625 92.796875 -72.4375 Z M 38.953125 -30.75 C 38.953125 -28.925781 39.632812 -27.398438 41 -26.171875 C 42.363281 -24.941406 45.507812 -24.328125 50.4375 -24.328125 C 55.351562 -24.328125 58.492188 -24.941406 59.859375 -26.171875 C 61.222656 -27.398438 61.90625 -28.925781 61.90625 -30.75 L 61.90625 -67.515625 C 61.90625 -69.242188 61.222656 -70.722656 59.859375 -71.953125 C 58.492188 -73.179688 55.351562 -73.796875 50.4375 -73.796875 C 45.507812 -73.796875 42.363281 -73.179688 41 -71.953125 C 39.632812 -70.722656 38.953125 -69.242188 38.953125 -67.515625 Z M 38.953125 -30.75 "/></g></g></g><g fill="#ff00ff" fill-opacity="1"><g transform="translate(235.066303, 137.570484)"><g><path d="M 93.203125 -25.828125 C 93.203125 -21.640625 92.585938 -17.835938 91.359375 -14.421875 C 90.128906 -11.003906 87.941406 -8.085938 84.796875 -5.671875 C 81.660156 -3.253906 77.359375 -1.363281 71.890625 0 C 66.421875 1.363281 59.453125 2.046875 50.984375 2.046875 C 42.503906 2.046875 35.53125 1.363281 30.0625 0 C 24.601562 -1.363281 20.300781 -3.253906 17.15625 -5.671875 C 14.007812 -8.085938 11.820312 -11.003906 10.59375 -14.421875 C 9.363281 -17.835938 8.75 -21.640625 8.75 -25.828125 L 8.75 -93.484375 C 8.75 -95.210938 9.132812 -96.460938 9.90625 -97.234375 C 10.6875 -98.015625 11.941406 -98.40625 13.671875 -98.40625 L 35.125 -98.40625 C 36.851562 -98.40625 38.101562 -98.015625 38.875 -97.234375 C 39.65625 -96.460938 40.046875 -95.210938 40.046875 -93.484375 L 40.046875 -31.15625 C 40.046875 -29.332031 40.726562 -27.804688 42.09375 -26.578125 C 43.457031 -25.347656 46.507812 -24.734375 51.25 -24.734375 C 56.082031 -24.734375 59.179688 -25.347656 60.546875 -26.578125 C 61.910156 -27.804688 62.59375 -29.332031 62.59375 -31.15625 L 62.59375 -93.484375 C 62.59375 -95.210938 62.976562 -96.460938 63.75 -97.234375 C 64.53125 -98.015625 65.785156 -98.40625 67.515625 -98.40625 L 88.296875 -98.40625 C 90.023438 -98.40625 91.273438 -98.015625 92.046875 -97.234375 C 92.816406 -96.460938 93.203125 -95.210938 93.203125 -93.484375 Z M 93.203125 -25.828125 "/></g></g></g><g fill="#00ffff" fill-opacity="1"><g transform="translate(45.118283, 130.929498)"><g><path d="M 59.3125 0 L 37.171875 0 C 35.441406 0 34.1875 -0.382812 33.40625 -1.15625 C 32.632812 -1.9375 32.25 -3.191406 32.25 -4.921875 L 32.25 -22.421875 L 11.34375 -50.4375 C 9.25 -53.257812 7.859375 -55.71875 7.171875 -57.8125 C 6.492188 -59.90625 6.15625 -63.050781 6.15625 -67.25 L 6.15625 -93.484375 C 6.15625 -95.210938 6.539062 -96.460938 7.3125 -97.234375 C 8.082031 -98.015625 9.335938 -98.40625 11.078125 -98.40625 L 32.125 -98.40625 C 33.851562 -98.40625 35.101562 -98.015625 35.875 -97.234375 C 36.644531 -96.460938 37.03125 -95.210938 37.03125 -93.484375 L 37.03125 -71.0625 C 37.03125 -70.15625 37.078125 -69.203125 37.171875 -68.203125 C 37.265625 -67.203125 37.628906 -66.242188 38.265625 -65.328125 L 44.5625 -55.484375 C 45.007812 -54.671875 45.484375 -54.082031 45.984375 -53.71875 C 46.484375 -53.351562 47.097656 -53.171875 47.828125 -53.171875 L 49.203125 -53.171875 C 49.929688 -53.171875 50.546875 -53.351562 51.046875 -53.71875 C 51.546875 -54.082031 52.023438 -54.671875 52.484375 -55.484375 L 58.765625 -65.328125 C 59.398438 -66.242188 59.765625 -67.203125 59.859375 -68.203125 C 59.953125 -69.203125 60 -70.15625 60 -71.0625 L 60 -93.484375 C 60 -95.210938 60.382812 -96.460938 61.15625 -97.234375 C 61.9375 -98.015625 63.191406 -98.40625 64.921875 -98.40625 L 85.28125 -98.40625 C 87.007812 -98.40625 88.257812 -98.015625 89.03125 -97.234375 C 89.8125 -96.460938 90.203125 -95.210938 90.203125 -93.484375 L 90.203125 -67.25 C 90.203125 -63.050781 89.835938 -59.90625 89.109375 -57.8125 C 88.378906 -55.71875 87.015625 -53.257812 85.015625 -50.4375 L 64.234375 -22.28125 L 64.234375 -4.921875 C 64.234375 -3.191406 63.84375 -1.9375 63.0625 -1.15625 C 62.289062 -0.382812 61.039062 0 59.3125 0 Z M 59.3125 0 "/></g></g></g><g fill="#00ffff" fill-opacity="1"><g transform="translate(141.466464, 130.929498)"><g><path d="M 92.796875 -25.828125 C 92.796875 -21.640625 92.179688 -17.835938 90.953125 -14.421875 C 89.722656 -11.003906 87.535156 -8.085938 84.390625 -5.671875 C 81.242188 -3.253906 76.914062 -1.363281 71.40625 0 C 65.894531 1.363281 58.90625 2.046875 50.4375 2.046875 C 41.957031 2.046875 34.9375 1.363281 29.375 0 C 23.820312 -1.363281 19.472656 -3.253906 16.328125 -5.671875 C 13.179688 -8.085938 10.992188 -11.003906 9.765625 -14.421875 C 8.535156 -17.835938 7.921875 -21.640625 7.921875 -25.828125 L 7.921875 -72.4375 C 7.921875 -76.625 8.535156 -80.425781 9.765625 -83.84375 C 10.992188 -87.257812 13.179688 -90.195312 16.328125 -92.65625 C 19.472656 -95.125 23.820312 -97.039062 29.375 -98.40625 C 34.9375 -99.769531 41.957031 -100.453125 50.4375 -100.453125 C 58.90625 -100.453125 65.894531 -99.769531 71.40625 -98.40625 C 76.914062 -97.039062 81.242188 -95.125 84.390625 -92.65625 C 87.535156 -90.195312 89.722656 -87.257812 90.953125 -83.84375 C 92.179688 -80.425781 92.796875 -76.625 92.796875 -72.4375 Z M 38.953125 -30.75 C 38.953125 -28.925781 39.632812 -27.398438 41 -26.171875 C 42.363281 -24.941406 45.507812 -24.328125 50.4375 -24.328125 C 55.351562 -24.328125 58.492188 -24.941406 59.859375 -26.171875 C 61.222656 -27.398438 61.90625 -28.925781 61.90625 -30.75 L 61.90625 -67.515625 C 61.90625 -69.242188 61.222656 -70.722656 59.859375 -71.953125 C 58.492188 -73.179688 55.351562 -73.796875 50.4375 -73.796875 C 45.507812 -73.796875 42.363281 -73.179688 41 -71.953125 C 39.632812 -70.722656 38.953125 -69.242188 38.953125 -67.515625 Z M 38.953125 -30.75 "/></g></g></g><g fill="#00ffff" fill-opacity="1"><g transform="translate(242.187888, 130.929498)"><g><path d="M 93.203125 -25.828125 C 93.203125 -21.640625 92.585938 -17.835938 91.359375 -14.421875 C 90.128906 -11.003906 87.941406 -8.085938 84.796875 -5.671875 C 81.660156 -3.253906 77.359375 -1.363281 71.890625 0 C 66.421875 1.363281 59.453125 2.046875 50.984375 2.046875 C 42.503906 2.046875 35.53125 1.363281 30.0625 0 C 24.601562 -1.363281 20.300781 -3.253906 17.15625 -5.671875 C 14.007812 -8.085938 11.820312 -11.003906 10.59375 -14.421875 C 9.363281 -17.835938 8.75 -21.640625 8.75 -25.828125 L 8.75 -93.484375 C 8.75 -95.210938 9.132812 -96.460938 9.90625 -97.234375 C 10.6875 -98.015625 11.941406 -98.40625 13.671875 -98.40625 L 35.125 -98.40625 C 36.851562 -98.40625 38.101562 -98.015625 38.875 -97.234375 C 39.65625 -96.460938 40.046875 -95.210938 40.046875 -93.484375 L 40.046875 -31.15625 C 40.046875 -29.332031 40.726562 -27.804688 42.09375 -26.578125 C 43.457031 -25.347656 46.507812 -24.734375 51.25 -24.734375 C 56.082031 -24.734375 59.179688 -25.347656 60.546875 -26.578125 C 61.910156 -27.804688 62.59375 -29.332031 62.59375 -31.15625 L 62.59375 -93.484375 C 62.59375 -95.210938 62.976562 -96.460938 63.75 -97.234375 C 64.53125 -98.015625 65.785156 -98.40625 67.515625 -98.40625 L 88.296875 -98.40625 C 90.023438 -98.40625 91.273438 -98.015625 92.046875 -97.234375 C 92.816406 -96.460938 93.203125 -95.210938 93.203125 -93.484375 Z M 93.203125 -25.828125 "/></g></g></g><g fill="#7843e6" fill-opacity="1"><g transform="translate(41.55749, 134.249991)"><g><path d="M 59.3125 0 L 37.171875 0 C 35.441406 0 34.1875 -0.382812 33.40625 -1.15625 C 32.632812 -1.9375 32.25 -3.191406 32.25 -4.921875 L 32.25 -22.421875 L 11.34375 -50.4375 C 9.25 -53.257812 7.859375 -55.71875 7.171875 -57.8125 C 6.492188 -59.90625 6.15625 -63.050781 6.15625 -67.25 L 6.15625 -93.484375 C 6.15625 -95.210938 6.539062 -96.460938 7.3125 -97.234375 C 8.082031 -98.015625 9.335938 -98.40625 11.078125 -98.40625 L 32.125 -98.40625 C 33.851562 -98.40625 35.101562 -98.015625 35.875 -97.234375 C 36.644531 -96.460938 37.03125 -95.210938 37.03125 -93.484375 L 37.03125 -71.0625 C 37.03125 -70.15625 37.078125 -69.203125 37.171875 -68.203125 C 37.265625 -67.203125 37.628906 -66.242188 38.265625 -65.328125 L 44.5625 -55.484375 C 45.007812 -54.671875 45.484375 -54.082031 45.984375 -53.71875 C 46.484375 -53.351562 47.097656 -53.171875 47.828125 -53.171875 L 49.203125 -53.171875 C 49.929688 -53.171875 50.546875 -53.351562 51.046875 -53.71875 C 51.546875 -54.082031 52.023438 -54.671875 52.484375 -55.484375 L 58.765625 -65.328125 C 59.398438 -66.242188 59.765625 -67.203125 59.859375 -68.203125 C 59.953125 -69.203125 60 -70.15625 60 -71.0625 L 60 -93.484375 C 60 -95.210938 60.382812 -96.460938 61.15625 -97.234375 C 61.9375 -98.015625 63.191406 -98.40625 64.921875 -98.40625 L 85.28125 -98.40625 C 87.007812 -98.40625 88.257812 -98.015625 89.03125 -97.234375 C 89.8125 -96.460938 90.203125 -95.210938 90.203125 -93.484375 L 90.203125 -67.25 C 90.203125 -63.050781 89.835938 -59.90625 89.109375 -57.8125 C 88.378906 -55.71875 87.015625 -53.257812 85.015625 -50.4375 L 64.234375 -22.28125 L 64.234375 -4.921875 C 64.234375 -3.191406 63.84375 -1.9375 63.0625 -1.15625 C 62.289062 -0.382812 61.039062 0 59.3125 0 Z M 59.3125 0 "/></g></g></g><g fill="#7843e6" fill-opacity="1"><g transform="translate(137.90567, 134.249991)"><g><path d="M 92.796875 -25.828125 C 92.796875 -21.640625 92.179688 -17.835938 90.953125 -14.421875 C 89.722656 -11.003906 87.535156 -8.085938 84.390625 -5.671875 C 81.242188 -3.253906 76.914062 -1.363281 71.40625 0 C 65.894531 1.363281 58.90625 2.046875 50.4375 2.046875 C 41.957031 2.046875 34.9375 1.363281 29.375 0 C 23.820312 -1.363281 19.472656 -3.253906 16.328125 -5.671875 C 13.179688 -8.085938 10.992188 -11.003906 9.765625 -14.421875 C 8.535156 -17.835938 7.921875 -21.640625 7.921875 -25.828125 L 7.921875 -72.4375 C 7.921875 -76.625 8.535156 -80.425781 9.765625 -83.84375 C 10.992188 -87.257812 13.179688 -90.195312 16.328125 -92.65625 C 19.472656 -95.125 23.820312 -97.039062 29.375 -98.40625 C 34.9375 -99.769531 41.957031 -100.453125 50.4375 -100.453125 C 58.90625 -100.453125 65.894531 -99.769531 71.40625 -98.40625 C 76.914062 -97.039062 81.242188 -95.125 84.390625 -92.65625 C 87.535156 -90.195312 89.722656 -87.257812 90.953125 -83.84375 C 92.179688 -80.425781 92.796875 -76.625 92.796875 -72.4375 Z M 38.953125 -30.75 C 38.953125 -28.925781 39.632812 -27.398438 41 -26.171875 C 42.363281 -24.941406 45.507812 -24.328125 50.4375 -24.328125 C 55.351562 -24.328125 58.492188 -24.941406 59.859375 -26.171875 C 61.222656 -27.398438 61.90625 -28.925781 61.90625 -30.75 L 61.90625 -67.515625 C 61.90625 -69.242188 61.222656 -70.722656 59.859375 -71.953125 C 58.492188 -73.179688 55.351562 -73.796875 50.4375 -73.796875 C 45.507812 -73.796875 42.363281 -73.179688 41 -71.953125 C 39.632812 -70.722656 38.953125 -69.242188 38.953125 -67.515625 Z M 38.953125 -30.75 "/></g></g></g><g fill="#7843e6" fill-opacity="1"><g transform="translate(238.627095, 134.249991)"><g><path d="M 93.203125 -25.828125 C 93.203125 -21.640625 92.585938 -17.835938 91.359375 -14.421875 C 90.128906 -11.003906 87.941406 -8.085938 84.796875 -5.671875 C 81.660156 -3.253906 77.359375 -1.363281 71.890625 0 C 66.421875 1.363281 59.453125 2.046875 50.984375 2.046875 C 42.503906 2.046875 35.53125 1.363281 30.0625 0 C 24.601562 -1.363281 20.300781 -3.253906 17.15625 -5.671875 C 14.007812 -8.085938 11.820312 -11.003906 10.59375 -14.421875 C 9.363281 -17.835938 8.75 -21.640625 8.75 -25.828125 L 8.75 -93.484375 C 8.75 -95.210938 9.132812 -96.460938 9.90625 -97.234375 C 10.6875 -98.015625 11.941406 -98.40625 13.671875 -98.40625 L 35.125 -98.40625 C 36.851562 -98.40625 38.101562 -98.015625 38.875 -97.234375 C 39.65625 -96.460938 40.046875 -95.210938 40.046875 -93.484375 L 40.046875 -31.15625 C 40.046875 -29.332031 40.726562 -27.804688 42.09375 -26.578125 C 43.457031 -25.347656 46.507812 -24.734375 51.25 -24.734375 C 56.082031 -24.734375 59.179688 -25.347656 60.546875 -26.578125 C 61.910156 -27.804688 62.59375 -29.332031 62.59375 -31.15625 L 62.59375 -93.484375 C 62.59375 -95.210938 62.976562 -96.460938 63.75 -97.234375 C 64.53125 -98.015625 65.785156 -98.40625 67.515625 -98.40625 L 88.296875 -98.40625 C 90.023438 -98.40625 91.273438 -98.015625 92.046875 -97.234375 C 92.816406 -96.460938 93.203125 -95.210938 93.203125 -93.484375 Z M 93.203125 -25.828125 "/></g></g></g><g fill="#ff00ff" fill-opacity="1"><g transform="translate(158.922471, 239.570477)"><g><path d="M 10.390625 -35.125 C 8.660156 -35.125 7.40625 -35.507812 6.625 -36.28125 C 5.851562 -37.0625 5.46875 -38.316406 5.46875 -40.046875 L 5.46875 -58.359375 C 5.46875 -60.085938 5.851562 -61.335938 6.625 -62.109375 C 7.40625 -62.890625 8.660156 -63.28125 10.390625 -63.28125 L 47.015625 -63.28125 C 48.742188 -63.28125 49.992188 -62.890625 50.765625 -62.109375 C 51.546875 -61.335938 51.9375 -60.085938 51.9375 -58.359375 L 51.9375 -40.046875 C 51.9375 -38.316406 51.546875 -37.0625 50.765625 -36.28125 C 49.992188 -35.507812 48.742188 -35.125 47.015625 -35.125 Z M 10.390625 -35.125 "/></g></g></g><g fill="#00ffff" fill-opacity="1"><g transform="translate(166.044056, 232.929492)"><g><path d="M 10.390625 -35.125 C 8.660156 -35.125 7.40625 -35.507812 6.625 -36.28125 C 5.851562 -37.0625 5.46875 -38.316406 5.46875 -40.046875 L 5.46875 -58.359375 C 5.46875 -60.085938 5.851562 -61.335938 6.625 -62.109375 C 7.40625 -62.890625 8.660156 -63.28125 10.390625 -63.28125 L 47.015625 -63.28125 C 48.742188 -63.28125 49.992188 -62.890625 50.765625 -62.109375 C 51.546875 -61.335938 51.9375 -60.085938 51.9375 -58.359375 L 51.9375 -40.046875 C 51.9375 -38.316406 51.546875 -37.0625 50.765625 -36.28125 C 49.992188 -35.507812 48.742188 -35.125 47.015625 -35.125 Z M 10.390625 -35.125 "/></g></g></g><g fill="#7843e6" fill-opacity="1"><g transform="translate(162.483263, 236.249984)"><g><path d="M 10.390625 -35.125 C 8.660156 -35.125 7.40625 -35.507812 6.625 -36.28125 C 5.851562 -37.0625 5.46875 -38.316406 5.46875 -40.046875 L 5.46875 -58.359375 C 5.46875 -60.085938 5.851562 -61.335938 6.625 -62.109375 C 7.40625 -62.890625 8.660156 -63.28125 10.390625 -63.28125 L 47.015625 -63.28125 C 48.742188 -63.28125 49.992188 -62.890625 50.765625 -62.109375 C 51.546875 -61.335938 51.9375 -60.085938 51.9375 -58.359375 L 51.9375 -40.046875 C 51.9375 -38.316406 51.546875 -37.0625 50.765625 -36.28125 C 49.992188 -35.507812 48.742188 -35.125 47.015625 -35.125 Z M 10.390625 -35.125 "/></g></g></g><g fill="#ff00ff" fill-opacity="1"><g transform="translate(39.684197, 341.570471)"><g><path d="M 35.53125 0 L 14.34375 0 C 12.613281 0 11.363281 -0.382812 10.59375 -1.15625 C 9.820312 -1.9375 9.4375 -3.191406 9.4375 -4.921875 L 9.4375 -93.484375 C 9.4375 -95.210938 9.820312 -96.460938 10.59375 -97.234375 C 11.363281 -98.015625 12.613281 -98.40625 14.34375 -98.40625 L 56.171875 -98.40625 C 68.566406 -98.40625 77.039062 -95.941406 81.59375 -91.015625 C 86.144531 -86.097656 88.421875 -79.675781 88.421875 -71.75 L 88.421875 -54.265625 C 88.421875 -46.335938 86.144531 -39.910156 81.59375 -34.984375 C 77.039062 -30.066406 68.566406 -27.609375 56.171875 -27.609375 L 40.453125 -27.609375 L 40.453125 -4.921875 C 40.453125 -3.191406 40.0625 -1.9375 39.28125 -1.15625 C 38.507812 -0.382812 37.257812 0 35.53125 0 Z M 40.1875 -72.84375 L 40.1875 -52.203125 L 52.484375 -52.203125 C 55.128906 -52.203125 56.859375 -52.882812 57.671875 -54.25 C 58.492188 -55.625 58.90625 -57.175781 58.90625 -58.90625 L 58.90625 -66.15625 C 58.90625 -67.882812 58.492188 -69.429688 57.671875 -70.796875 C 56.859375 -72.160156 55.128906 -72.84375 52.484375 -72.84375 Z M 40.1875 -72.84375 "/></g></g></g><g fill="#ff00ff" fill-opacity="1"><g transform="translate(132.889098, 341.570471)"><g><path d="M 92.796875 -25.828125 C 92.796875 -21.640625 92.179688 -17.835938 90.953125 -14.421875 C 89.722656 -11.003906 87.535156 -8.085938 84.390625 -5.671875 C 81.242188 -3.253906 76.914062 -1.363281 71.40625 0 C 65.894531 1.363281 58.90625 2.046875 50.4375 2.046875 C 41.957031 2.046875 34.9375 1.363281 29.375 0 C 23.820312 -1.363281 19.472656 -3.253906 16.328125 -5.671875 C 13.179688 -8.085938 10.992188 -11.003906 9.765625 -14.421875 C 8.535156 -17.835938 7.921875 -21.640625 7.921875 -25.828125 L 7.921875 -72.4375 C 7.921875 -76.625 8.535156 -80.425781 9.765625 -83.84375 C 10.992188 -87.257812 13.179688 -90.195312 16.328125 -92.65625 C 19.472656 -95.125 23.820312 -97.039062 29.375 -98.40625 C 34.9375 -99.769531 41.957031 -100.453125 50.4375 -100.453125 C 58.90625 -100.453125 65.894531 -99.769531 71.40625 -98.40625 C 76.914062 -97.039062 81.242188 -95.125 84.390625 -92.65625 C 87.535156 -90.195312 89.722656 -87.257812 90.953125 -83.84375 C 92.179688 -80.425781 92.796875 -76.625 92.796875 -72.4375 Z M 38.953125 -30.75 C 38.953125 -28.925781 39.632812 -27.398438 41 -26.171875 C 42.363281 -24.941406 45.507812 -24.328125 50.4375 -24.328125 C 55.351562 -24.328125 58.492188 -24.941406 59.859375 -26.171875 C 61.222656 -27.398438 61.90625 -28.925781 61.90625 -30.75 L 61.90625 -67.515625 C 61.90625 -69.242188 61.222656 -70.722656 59.859375 -71.953125 C 58.492188 -73.179688 55.351562 -73.796875 50.4375 -73.796875 C 45.507812 -73.796875 42.363281 -73.179688 41 -71.953125 C 39.632812 -70.722656 38.953125 -69.242188 38.953125 -67.515625 Z M 38.953125 -30.75 "/></g></g></g><g fill="#ff00ff" fill-opacity="1"><g transform="translate(233.610523, 341.570471)"><g><path d="M 60.40625 0 L 14.34375 0 C 12.613281 0 11.363281 -0.382812 10.59375 -1.15625 C 9.820312 -1.9375 9.4375 -3.191406 9.4375 -4.921875 L 9.4375 -93.484375 C 9.4375 -95.210938 9.820312 -96.460938 10.59375 -97.234375 C 11.363281 -98.015625 12.613281 -98.40625 14.34375 -98.40625 L 60.40625 -98.40625 C 71.800781 -98.40625 80.253906 -96.125 85.765625 -91.5625 C 91.273438 -87.007812 94.03125 -79.992188 94.03125 -70.515625 L 94.03125 -27.875 C 94.03125 -18.40625 91.273438 -11.390625 85.765625 -6.828125 C 80.253906 -2.273438 71.800781 0 60.40625 0 Z M 40.453125 -72.296875 L 40.453125 -25.828125 L 56.71875 -25.828125 C 58.90625 -25.828125 60.519531 -26.375 61.5625 -27.46875 C 62.613281 -28.5625 63.140625 -30.25 63.140625 -32.53125 L 63.140625 -65.734375 C 63.140625 -68.015625 62.613281 -69.675781 61.5625 -70.71875 C 60.519531 -71.769531 58.90625 -72.296875 56.71875 -72.296875 Z M 40.453125 -72.296875 "/></g></g></g><g fill="#00ffff" fill-opacity="1"><g transform="translate(46.805783, 334.929485)"><g><path d="M 35.53125 0 L 14.34375 0 C 12.613281 0 11.363281 -0.382812 10.59375 -1.15625 C 9.820312 -1.9375 9.4375 -3.191406 9.4375 -4.921875 L 9.4375 -93.484375 C 9.4375 -95.210938 9.820312 -96.460938 10.59375 -97.234375 C 11.363281 -98.015625 12.613281 -98.40625 14.34375 -98.40625 L 56.171875 -98.40625 C 68.566406 -98.40625 77.039062 -95.941406 81.59375 -91.015625 C 86.144531 -86.097656 88.421875 -79.675781 88.421875 -71.75 L 88.421875 -54.265625 C 88.421875 -46.335938 86.144531 -39.910156 81.59375 -34.984375 C 77.039062 -30.066406 68.566406 -27.609375 56.171875 -27.609375 L 40.453125 -27.609375 L 40.453125 -4.921875 C 40.453125 -3.191406 40.0625 -1.9375 39.28125 -1.15625 C 38.507812 -0.382812 37.257812 0 35.53125 0 Z M 40.1875 -72.84375 L 40.1875 -52.203125 L 52.484375 -52.203125 C 55.128906 -52.203125 56.859375 -52.882812 57.671875 -54.25 C 58.492188 -55.625 58.90625 -57.175781 58.90625 -58.90625 L 58.90625 -66.15625 C 58.90625 -67.882812 58.492188 -69.429688 57.671875 -70.796875 C 56.859375 -72.160156 55.128906 -72.84375 52.484375 -72.84375 Z M 40.1875 -72.84375 "/></g></g></g><g fill="#00ffff" fill-opacity="1"><g transform="translate(140.010684, 334.929485)"><g><path d="M 92.796875 -25.828125 C 92.796875 -21.640625 92.179688 -17.835938 90.953125 -14.421875 C 89.722656 -11.003906 87.535156 -8.085938 84.390625 -5.671875 C 81.242188 -3.253906 76.914062 -1.363281 71.40625 0 C 65.894531 1.363281 58.90625 2.046875 50.4375 2.046875 C 41.957031 2.046875 34.9375 1.363281 29.375 0 C 23.820312 -1.363281 19.472656 -3.253906 16.328125 -5.671875 C 13.179688 -8.085938 10.992188 -11.003906 9.765625 -14.421875 C 8.535156 -17.835938 7.921875 -21.640625 7.921875 -25.828125 L 7.921875 -72.4375 C 7.921875 -76.625 8.535156 -80.425781 9.765625 -83.84375 C 10.992188 -87.257812 13.179688 -90.195312 16.328125 -92.65625 C 19.472656 -95.125 23.820312 -97.039062 29.375 -98.40625 C 34.9375 -99.769531 41.957031 -100.453125 50.4375 -100.453125 C 58.90625 -100.453125 65.894531 -99.769531 71.40625 -98.40625 C 76.914062 -97.039062 81.242188 -95.125 84.390625 -92.65625 C 87.535156 -90.195312 89.722656 -87.257812 90.953125 -83.84375 C 92.179688 -80.425781 92.796875 -76.625 92.796875 -72.4375 Z M 38.953125 -30.75 C 38.953125 -28.925781 39.632812 -27.398438 41 -26.171875 C 42.363281 -24.941406 45.507812 -24.328125 50.4375 -24.328125 C 55.351562 -24.328125 58.492188 -24.941406 59.859375 -26.171875 C 61.222656 -27.398438 61.90625 -28.925781 61.90625 -30.75 L 61.90625 -67.515625 C 61.90625 -69.242188 61.222656 -70.722656 59.859375 -71.953125 C 58.492188 -73.179688 55.351562 -73.796875 50.4375 -73.796875 C 45.507812 -73.796875 42.363281 -73.179688 41 -71.953125 C 39.632812 -70.722656 38.953125 -69.242188 38.953125 -67.515625 Z M 38.953125 -30.75 "/></g></g></g><g fill="#00ffff" fill-opacity="1"><g transform="translate(240.732109, 334.929485)"><g><path d="M 60.40625 0 L 14.34375 0 C 12.613281 0 11.363281 -0.382812 10.59375 -1.15625 C 9.820312 -1.9375 9.4375 -3.191406 9.4375 -4.921875 L 9.4375 -93.484375 C 9.4375 -95.210938 9.820312 -96.460938 10.59375 -97.234375 C 11.363281 -98.015625 12.613281 -98.40625 14.34375 -98.40625 L 60.40625 -98.40625 C 71.800781 -98.40625 80.253906 -96.125 85.765625 -91.5625 C 91.273438 -87.007812 94.03125 -79.992188 94.03125 -70.515625 L 94.03125 -27.875 C 94.03125 -18.40625 91.273438 -11.390625 85.765625 -6.828125 C 80.253906 -2.273438 71.800781 0 60.40625 0 Z M 40.453125 -72.296875 L 40.453125 -25.828125 L 56.71875 -25.828125 C 58.90625 -25.828125 60.519531 -26.375 61.5625 -27.46875 C 62.613281 -28.5625 63.140625 -30.25 63.140625 -32.53125 L 63.140625 -65.734375 C 63.140625 -68.015625 62.613281 -69.675781 61.5625 -70.71875 C 60.519531 -71.769531 58.90625 -72.296875 56.71875 -72.296875 Z M 40.453125 -72.296875 "/></g></g></g><g fill="#7843e6" fill-opacity="1"><g transform="translate(43.24499, 338.249978)"><g><path d="M 35.53125 0 L 14.34375 0 C 12.613281 0 11.363281 -0.382812 10.59375 -1.15625 C 9.820312 -1.9375 9.4375 -3.191406 9.4375 -4.921875 L 9.4375 -93.484375 C 9.4375 -95.210938 9.820312 -96.460938 10.59375 -97.234375 C 11.363281 -98.015625 12.613281 -98.40625 14.34375 -98.40625 L 56.171875 -98.40625 C 68.566406 -98.40625 77.039062 -95.941406 81.59375 -91.015625 C 86.144531 -86.097656 88.421875 -79.675781 88.421875 -71.75 L 88.421875 -54.265625 C 88.421875 -46.335938 86.144531 -39.910156 81.59375 -34.984375 C 77.039062 -30.066406 68.566406 -27.609375 56.171875 -27.609375 L 40.453125 -27.609375 L 40.453125 -4.921875 C 40.453125 -3.191406 40.0625 -1.9375 39.28125 -1.15625 C 38.507812 -0.382812 37.257812 0 35.53125 0 Z M 40.1875 -72.84375 L 40.1875 -52.203125 L 52.484375 -52.203125 C 55.128906 -52.203125 56.859375 -52.882812 57.671875 -54.25 C 58.492188 -55.625 58.90625 -57.175781 58.90625 -58.90625 L 58.90625 -66.15625 C 58.90625 -67.882812 58.492188 -69.429688 57.671875 -70.796875 C 56.859375 -72.160156 55.128906 -72.84375 52.484375 -72.84375 Z M 40.1875 -72.84375 "/></g></g></g><g fill="#7843e6" fill-opacity="1"><g transform="translate(136.44989, 338.249978)"><g><path d="M 92.796875 -25.828125 C 92.796875 -21.640625 92.179688 -17.835938 90.953125 -14.421875 C 89.722656 -11.003906 87.535156 -8.085938 84.390625 -5.671875 C 81.242188 -3.253906 76.914062 -1.363281 71.40625 0 C 65.894531 1.363281 58.90625 2.046875 50.4375 2.046875 C 41.957031 2.046875 34.9375 1.363281 29.375 0 C 23.820312 -1.363281 19.472656 -3.253906 16.328125 -5.671875 C 13.179688 -8.085938 10.992188 -11.003906 9.765625 -14.421875 C 8.535156 -17.835938 7.921875 -21.640625 7.921875 -25.828125 L 7.921875 -72.4375 C 7.921875 -76.625 8.535156 -80.425781 9.765625 -83.84375 C 10.992188 -87.257812 13.179688 -90.195312 16.328125 -92.65625 C 19.472656 -95.125 23.820312 -97.039062 29.375 -98.40625 C 34.9375 -99.769531 41.957031 -100.453125 50.4375 -100.453125 C 58.90625 -100.453125 65.894531 -99.769531 71.40625 -98.40625 C 76.914062 -97.039062 81.242188 -95.125 84.390625 -92.65625 C 87.535156 -90.195312 89.722656 -87.257812 90.953125 -83.84375 C 92.179688 -80.425781 92.796875 -76.625 92.796875 -72.4375 Z M 38.953125 -30.75 C 38.953125 -28.925781 39.632812 -27.398438 41 -26.171875 C 42.363281 -24.941406 45.507812 -24.328125 50.4375 -24.328125 C 55.351562 -24.328125 58.492188 -24.941406 59.859375 -26.171875 C 61.222656 -27.398438 61.90625 -28.925781 61.90625 -30.75 L 61.90625 -67.515625 C 61.90625 -69.242188 61.222656 -70.722656 59.859375 -71.953125 C 58.492188 -73.179688 55.351562 -73.796875 50.4375 -73.796875 C 45.507812 -73.796875 42.363281 -73.179688 41 -71.953125 C 39.632812 -70.722656 38.953125 -69.242188 38.953125 -67.515625 Z M 38.953125 -30.75 "/></g></g></g><g fill="#7843e6" fill-opacity="1"><g transform="translate(237.171315, 338.249978)"><g><path d="M 60.40625 0 L 14.34375 0 C 12.613281 0 11.363281 -0.382812 10.59375 -1.15625 C 9.820312 -1.9375 9.4375 -3.191406 9.4375 -4.921875 L 9.4375 -93.484375 C 9.4375 -95.210938 9.820312 -96.460938 10.59375 -97.234375 C 11.363281 -98.015625 12.613281 -98.40625 14.34375 -98.40625 L 60.40625 -98.40625 C 71.800781 -98.40625 80.253906 -96.125 85.765625 -91.5625 C 91.273438 -87.007812 94.03125 -79.992188 94.03125 -70.515625 L 94.03125 -27.875 C 94.03125 -18.40625 91.273438 -11.390625 85.765625 -6.828125 C 80.253906 -2.273438 71.800781 0 60.40625 0 Z M 40.453125 -72.296875 L 40.453125 -25.828125 L 56.71875 -25.828125 C 58.90625 -25.828125 60.519531 -26.375 61.5625 -27.46875 C 62.613281 -28.5625 63.140625 -30.25 63.140625 -32.53125 L 63.140625 -65.734375 C 63.140625 -68.015625 62.613281 -69.675781 61.5625 -70.71875 C 60.519531 -71.769531 58.90625 -72.296875 56.71875 -72.296875 Z M 40.453125 -72.296875 "/></g></g></g></svg>